
    <svg viewBox="0 0 64 64" xmlns="http://www.w3.org/2000/svg">
      <path fill-rule="evenodd" clip-rule="evenodd" d="M32.0022 3.93795C35.3887 3.9187 38.7127 4.84959 41.5967 6.62493C44.3898 8.34433 46.6616 10.789 48.1719 13.6959C49.79 13.6533 51.4027 13.9164 52.925 14.4724C54.5496 15.0659 56.0379 15.9808 57.3009 17.1625C58.5639 18.3442 59.5757 19.7684 60.2757 21.35C60.9752 22.9304 61.3492 24.6356 61.3752 26.3637C61.4466 28.6801 60.8355 30.9664 59.6179 32.9384C58.3996 34.9116 56.6279 36.4829 54.5233 37.4567C54.2727 37.5727 53.9755 37.4636 53.8595 37.2129C53.7436 36.9623 53.8527 36.6652 54.1033 36.5492C56.0299 35.6577 57.6518 34.2193 58.7671 32.413C59.8823 30.6068 60.4417 28.5124 60.3756 26.3905L60.3753 26.3823H60.3754C60.3518 24.7873 60.0069 23.2134 59.3613 21.7548C58.7157 20.2961 57.7825 18.9825 56.6177 17.8927C55.4529 16.8028 54.0803 15.959 52.5819 15.4117C51.0835 14.8644 49.4902 14.6248 47.8972 14.7073C47.6983 14.7176 47.5122 14.6089 47.4236 14.4305C45.9989 11.5639 43.7985 9.1546 41.0725 7.47651C38.3465 5.79843 35.2043 4.91891 32.0033 4.93796L31.9936 4.93802V4.93792C27.7082 4.88033 23.562 6.45907 20.4002 9.35238C17.2384 12.2457 15.2989 16.2358 14.9769 20.5095C14.966 20.654 14.893 20.7867 14.7768 20.8731C14.6605 20.9596 14.5125 20.9914 14.371 20.9603C13.0928 20.6794 11.7682 20.6855 10.4927 20.9782C9.21711 21.2709 8.02238 21.8429 6.99455 22.653C5.96672 23.463 5.13139 24.4911 4.54876 25.6629C3.96613 26.8348 3.65071 28.1213 3.62522 29.4297L3.6246 29.4468C3.52457 31.3099 4.09031 33.1479 5.22073 34.6322C6.35114 36.1166 7.97256 37.1506 9.79521 37.5495C10.065 37.6086 10.2358 37.8751 10.1768 38.1449C10.1177 38.4146 9.85118 38.5854 9.58142 38.5264C7.52696 38.0768 5.69934 36.9112 4.42516 35.2381C3.15271 33.5672 2.51501 31.4988 2.62558 29.4017C2.65515 27.9483 3.00612 26.5195 3.65333 25.2177C4.30181 23.9134 5.23155 22.7692 6.37554 21.8676C7.51953 20.9659 8.8493 20.3293 10.269 20.0035C11.5048 19.7199 12.7819 19.678 14.0304 19.8782C14.4917 15.5616 16.5131 11.5539 19.7251 8.61464C23.0735 5.55059 27.464 3.87819 32.0022 3.93795Z" />
      <path fill-rule="evenodd" clip-rule="evenodd" d="M24.125 39.063C23.5614 39.063 23.0209 39.2869 22.6224 39.6854C22.2239 40.0839 22 40.6244 22 41.188V56.938C22 57.5016 22.2239 58.0421 22.6224 58.4406C23.0209 58.8391 23.5614 59.063 24.125 59.063H42.5C43.0636 59.063 43.6041 58.8391 44.0026 58.4406C44.4011 58.0421 44.625 57.5016 44.625 56.938V41.188C44.625 40.6244 44.4011 40.0839 44.0026 39.6854C43.6041 39.2869 43.0636 39.063 42.5 39.063H24.125ZM21.9153 38.9783C22.5013 38.3922 23.2962 38.063 24.125 38.063H42.5C43.3288 38.063 44.1237 38.3922 44.7097 38.9783C45.2958 39.5643 45.625 40.3592 45.625 41.188V56.938C45.625 57.7668 45.2958 58.5616 44.7097 59.1477C44.1237 59.7337 43.3288 60.063 42.5 60.063H24.125C23.2962 60.063 22.5013 59.7337 21.9153 59.1477C21.3292 58.5616 21 57.7668 21 56.938V41.188C21 40.3592 21.3292 39.5643 21.9153 38.9783Z" />
      <path fill-rule="evenodd" clip-rule="evenodd" d="M30.6388 46.5541C31.348 45.8449 32.3098 45.4465 33.3127 45.4465C34.3157 45.4465 35.2775 45.8449 35.9867 46.5541C36.6958 47.2633 37.0943 48.2251 37.0943 49.228C37.0943 50.231 36.6958 51.1928 35.9867 51.902C35.2775 52.6111 34.3157 53.0095 33.3127 53.0095C32.3098 53.0095 31.348 52.6111 30.6388 51.902C29.9297 51.1928 29.5312 50.231 29.5312 49.228C29.5312 48.2251 29.9297 47.2633 30.6388 46.5541ZM33.3127 46.4465C32.5751 46.4465 31.8676 46.7396 31.3459 47.2612C30.8243 47.7829 30.5312 48.4903 30.5312 49.228C30.5312 49.9657 30.8243 50.6732 31.3459 51.1949C31.8676 51.7165 32.575 52.0095 33.3127 52.0095C34.0504 52.0095 34.7579 51.7165 35.2796 51.1949C35.8012 50.6732 36.0943 49.9657 36.0943 49.228C36.0943 48.4903 35.8012 47.7829 35.2796 47.2612C34.7579 46.7396 34.0504 46.4465 33.3127 46.4465Z" />
      <path fill-rule="evenodd" clip-rule="evenodd" d="M28.3491 29.681C29.6711 28.3753 31.4544 27.6431 33.3125 27.6431C35.1706 27.6431 36.9539 28.3753 38.2759 29.681C39.5979 30.9868 40.352 32.7609 40.375 34.6189L40.375 34.6251L40.375 38.5631C40.375 38.8392 40.1511 39.0631 39.875 39.0631H26.75C26.4739 39.0631 26.25 38.8392 26.25 38.5631V34.6189C26.2729 32.7609 27.0271 30.9868 28.3491 29.681ZM33.3125 28.6431C31.7175 28.6431 30.1867 29.2716 29.0519 30.3925C27.9178 31.5127 27.2705 33.0344 27.25 34.6282V38.0631H39.375V34.6282C39.3545 33.0344 38.7072 31.5127 37.5731 30.3925C36.4383 29.2716 34.9075 28.6431 33.3125 28.6431Z" />
    </svg>
  