
    <svg viewBox="0 0 64 64" xmlns="http://www.w3.org/2000/svg">
      <path fill-rule="evenodd" clip-rule="evenodd" d="M19.7215 2.44911C22.451 1.31848 25.4546 1.02266 28.3523 1.59905C31.2499 2.17543 33.9116 3.59814 36.0008 5.68726C38.0899 7.77637 39.5126 10.4381 40.089 13.3358C40.6654 16.2334 40.3695 19.237 39.2389 21.9665C38.1083 24.6961 36.1937 27.0291 33.7371 28.6705C31.2806 30.3119 28.3925 31.188 25.438 31.188C21.4762 31.188 17.6767 29.6142 14.8752 26.8128C12.0738 24.0114 10.5 20.2118 10.5 16.25C10.5 13.2956 11.3761 10.4075 13.0175 7.95091C14.6589 5.49437 16.9919 3.57973 19.7215 2.44911ZM28.1572 2.57983C25.4535 2.04203 22.651 2.31805 20.1042 3.37299C17.5573 4.42792 15.3805 6.21439 13.849 8.50648C12.3174 10.7986 11.5 13.4933 11.5 16.25C11.5 19.9466 12.9685 23.4918 15.5823 26.1057C18.1962 28.7196 21.7414 30.188 25.438 30.188C28.1947 30.188 30.8894 29.3706 33.1815 27.839C35.4736 26.3075 37.2601 24.1307 38.315 21.5839C39.37 19.037 39.646 16.2346 39.1082 13.5308C38.5704 10.8271 37.2429 8.34363 35.2937 6.39436C33.3444 4.4451 30.8609 3.11763 28.1572 2.57983Z" />
      <path fill-rule="evenodd" clip-rule="evenodd" d="M25.5067 13.1299C25.7801 13.1686 25.9704 13.4216 25.9317 13.695C25.1864 18.9607 22.7244 21.5666 19.8288 22.5551C16.9878 23.525 13.8493 22.8954 11.7725 21.9555C11.5209 21.8416 11.4093 21.5454 11.5231 21.2938C11.637 21.0422 11.9332 20.9306 12.1848 21.0444C14.116 21.9185 16.982 22.4703 19.5057 21.6088C21.9748 20.7658 24.2378 18.5271 24.9416 13.5549C24.9803 13.2815 25.2333 13.0912 25.5067 13.1299Z" />
      <path fill-rule="evenodd" clip-rule="evenodd" d="M25.3676 13.1299C25.641 13.0912 25.894 13.2815 25.9326 13.555C26.6365 18.5351 28.901 20.7793 31.3705 21.623C33.8943 22.4854 36.7596 21.93 38.687 21.0455C38.938 20.9303 39.2348 21.0404 39.35 21.2914C39.4652 21.5424 39.3551 21.8392 39.1041 21.9544C37.0286 22.9069 33.8893 23.5405 31.0471 22.5693C28.1506 21.5796 25.6877 18.9677 24.9425 13.6949C24.9038 13.4215 25.0942 13.1685 25.3676 13.1299Z" />
      <path fill-rule="evenodd" clip-rule="evenodd" d="M7.875 13.625C7.875 13.3489 8.09886 13.125 8.375 13.125H42.5C42.7761 13.125 43 13.3489 43 13.625C43 13.9011 42.7761 14.125 42.5 14.125H8.375C8.09886 14.125 7.875 13.9011 7.875 13.625Z" />
      <path fill-rule="evenodd" clip-rule="evenodd" d="M5.25 45.125C5.25 44.8489 5.47386 44.625 5.75 44.625H33.313C33.5891 44.625 33.813 44.8489 33.813 45.125C33.813 45.4011 33.5891 45.625 33.313 45.625H5.75C5.47386 45.625 5.25 45.4011 5.25 45.125Z" />
      <path fill-rule="evenodd" clip-rule="evenodd" d="M1.90039 53C1.90039 52.7239 2.12425 52.5 2.40039 52.5H29.3754C29.6515 52.5 29.8754 52.7239 29.8754 53C29.8754 53.2761 29.6515 53.5 29.3754 53.5H2.40039C2.12425 53.5 1.90039 53.2761 1.90039 53Z" />
      <path fill-rule="evenodd" clip-rule="evenodd" d="M35.1015 37.2342C31.5778 35.6133 27.7029 34.9047 23.8335 35.1737C19.9641 35.4428 16.2245 36.6808 12.959 38.7738C9.69343 40.8668 7.00679 43.7476 5.14633 47.151C3.28588 50.5544 2.31137 54.3711 2.3125 58.2498C2.31258 58.5259 2.08879 58.7499 1.81265 58.75C1.5365 58.75 1.31258 58.5262 1.3125 58.2501C1.31132 54.2036 2.32797 50.2219 4.26888 46.6713C6.20979 43.1207 9.01261 40.1154 12.4194 37.9319C15.8261 35.7484 19.7274 34.4568 23.7641 34.1762C27.8008 33.8955 31.8433 34.6347 35.5195 36.3257C35.7703 36.4411 35.8801 36.738 35.7647 36.9889C35.6493 37.2398 35.3524 37.3496 35.1015 37.2342Z" />
      <path fill-rule="evenodd" clip-rule="evenodd" d="M50.3745 36.437C48.4185 36.437 46.5427 37.214 45.1596 38.5971C43.7765 39.9802 42.9995 41.856 42.9995 43.812V50.375C42.9995 51.5518 42.5321 52.6805 41.7 53.5128C41.594 53.6188 41.4831 53.719 41.3679 53.813H59.3811C59.266 53.7191 59.1553 53.6191 59.0494 53.5132C58.2171 52.6809 57.7495 51.552 57.7495 50.375V43.812C57.7495 41.856 56.9725 39.9802 55.5894 38.5971C54.2063 37.214 52.3305 36.437 50.3745 36.437ZM62.1875 53.813C61.2757 53.813 60.4012 53.4508 59.7565 52.806C59.1117 52.1613 58.7495 51.2868 58.7495 50.375V43.812C58.7495 41.5908 57.8671 39.4606 56.2965 37.89C54.7259 36.3194 52.5957 35.437 50.3745 35.437C48.1533 35.437 46.0231 36.3194 44.4525 37.89C42.8819 39.4606 41.9995 41.5908 41.9995 43.812V50.375C41.9995 51.2867 41.6374 52.161 40.9928 52.8057C40.3483 53.4504 39.4741 53.8127 38.5625 53.813C38.5625 53.813 38.5625 53.813 38.5625 53.813C38.2864 53.8131 38.0625 54.037 38.0625 54.3131C38.0625 54.5892 38.2864 54.813 38.5625 54.813H62.1875C62.4636 54.813 62.6875 54.5892 62.6875 54.313C62.6875 54.0369 62.4636 53.813 62.1875 53.813Z" />
      <path fill-rule="evenodd" clip-rule="evenodd" d="M47.75 59.063C48.0261 59.063 48.25 59.2868 48.25 59.563C48.25 60.1266 48.4739 60.6671 48.8724 61.0656C49.2709 61.4641 49.8114 61.688 50.375 61.688C50.9386 61.688 51.4791 61.4641 51.8776 61.0656C52.2761 60.6671 52.5 60.1266 52.5 59.563C52.5 59.2868 52.7239 59.063 53 59.063C53.2761 59.063 53.5 59.2868 53.5 59.563C53.5 60.3918 53.1708 61.1866 52.5847 61.7727C51.9987 62.3587 51.2038 62.688 50.375 62.688C49.5462 62.688 48.7513 62.3587 48.1653 61.7727C47.5792 61.1866 47.25 60.3918 47.25 59.563C47.25 59.2868 47.4739 59.063 47.75 59.063Z" />
    </svg>
  