
    <svg viewBox="0 0 64 64" xmlns="http://www.w3.org/2000/svg">
      <path fill-rule="evenodd" clip-rule="evenodd" d="M7.0625 2.31299C5.80272 2.31299 4.59454 2.81343 3.70374 3.70423C2.81295 4.59503 2.3125 5.80321 2.3125 7.06299V12.313C2.3125 13.5728 2.81295 14.7809 3.70374 15.6717C4.59454 16.5625 5.80272 17.063 7.0625 17.063H51.6875C52.9473 17.063 54.1555 16.5625 55.0463 15.6717C55.9371 14.7809 56.4375 13.5728 56.4375 12.313V7.06299C56.4375 5.80321 55.9371 4.59503 55.0463 3.70423C54.1555 2.81343 52.9473 2.31299 51.6875 2.31299H7.0625ZM2.99664 2.99712C4.07497 1.91879 5.53751 1.31299 7.0625 1.31299H51.6875C53.2125 1.31299 54.675 1.91879 55.7534 2.99712C56.8317 4.07546 57.4375 5.53799 57.4375 7.06299V12.313C57.4375 13.838 56.8317 15.3005 55.7534 16.3789C54.675 17.4572 53.2125 18.063 51.6875 18.063H7.0625C5.53751 18.063 4.07497 17.4572 2.99664 16.3789C1.9183 15.3005 1.3125 13.838 1.3125 12.313V7.06299C1.3125 5.53799 1.9183 4.07546 2.99664 2.99712Z" />
      <path fill-rule="evenodd" clip-rule="evenodd" d="M7.0625 18.063C5.80272 18.063 4.59454 18.5634 3.70374 19.4542C2.81295 20.345 2.3125 21.5532 2.3125 22.813V28.063C2.3125 29.3228 2.81295 30.5309 3.70374 31.4217C4.59454 32.3125 5.80272 32.813 7.0625 32.813C7.33864 32.813 7.5625 33.0368 7.5625 33.313C7.5625 33.5891 7.33864 33.813 7.0625 33.813C5.53751 33.813 4.07497 33.2072 2.99664 32.1289C1.9183 31.0505 1.3125 29.588 1.3125 28.063V22.813C1.3125 21.288 1.9183 19.8255 2.99664 18.7471C4.07497 17.6688 5.53751 17.063 7.0625 17.063H51.6875C53.2125 17.063 54.675 17.6688 55.7534 18.7471C56.8317 19.8255 57.4375 21.288 57.4375 22.813V26.75C57.4375 27.0261 57.2136 27.25 56.9375 27.25C56.6614 27.25 56.4375 27.0261 56.4375 26.75V22.813C56.4375 21.5532 55.9371 20.345 55.0463 19.4542C54.1555 18.5634 52.9473 18.063 51.6875 18.063H7.0625Z" />
      <path fill-rule="evenodd" clip-rule="evenodd" d="M7.0625 33.813C5.80272 33.813 4.59454 34.3134 3.70374 35.2042C2.81295 36.095 2.3125 37.3032 2.3125 38.563V43.813C2.3125 45.0728 2.81295 46.2809 3.70374 47.1717C4.59454 48.0625 5.80272 48.563 7.0625 48.563H24.1245C24.4006 48.563 24.6245 48.7868 24.6245 49.063C24.6245 49.3391 24.4006 49.563 24.1245 49.563H7.0625C5.53751 49.563 4.07497 48.9572 2.99664 47.8789C1.9183 46.8005 1.3125 45.338 1.3125 43.813V38.563C1.3125 37.038 1.9183 35.5755 2.99664 34.4971C4.07497 33.4188 5.53751 32.813 7.0625 32.813H28.0625C28.3386 32.813 28.5625 33.0368 28.5625 33.313C28.5625 33.5891 28.3386 33.813 28.0625 33.813H7.0625Z" />
      <path fill-rule="evenodd" clip-rule="evenodd" d="M44.0705 42.1831C44.8722 41.3814 45.9596 40.931 47.0934 40.931C47.6548 40.931 48.2107 41.0416 48.7293 41.2564C49.248 41.4713 49.7193 41.7862 50.1162 42.1831C50.5132 42.5801 50.8281 43.0514 51.0429 43.5701C51.2578 44.0887 51.3684 44.6446 51.3684 45.206C51.3684 45.7674 51.2578 46.3233 51.0429 46.842C50.8281 47.3607 50.5132 47.8319 50.1162 48.2289C49.7193 48.6259 49.248 48.9408 48.7293 49.1556C48.2107 49.3705 47.6548 49.481 47.0934 49.481C45.9596 49.481 44.8722 49.0306 44.0705 48.2289C43.2688 47.4272 42.8184 46.3398 42.8184 45.206C42.8184 44.0722 43.2688 42.9849 44.0705 42.1831ZM47.0934 41.931C46.2248 41.931 45.3918 42.2761 44.7776 42.8903C44.1634 43.5044 43.8184 44.3374 43.8184 45.206C43.8184 46.0746 44.1634 46.9076 44.7776 47.5218C45.3918 48.136 46.2248 48.481 47.0934 48.481C47.5234 48.481 47.9493 48.3963 48.3466 48.2317C48.744 48.0672 49.105 47.8259 49.4091 47.5218C49.7132 47.2177 49.9545 46.8567 50.1191 46.4593C50.2836 46.062 50.3684 45.6361 50.3684 45.206C50.3684 44.776 50.2836 44.3501 50.1191 43.9527C49.9545 43.5554 49.7132 43.1944 49.4091 42.8903C49.105 42.5861 48.744 42.3449 48.3466 42.1803C47.9493 42.0157 47.5234 41.931 47.0934 41.931Z" />
      <path fill-rule="evenodd" clip-rule="evenodd" d="M48.7893 29.2903C48.2976 28.9261 47.7017 28.73 47.0899 28.7311C46.478 28.7321 45.8828 28.9303 45.3924 29.2961C44.9019 29.662 44.5424 30.1761 44.3671 30.7623L44.3664 30.7647L43.2536 34.4179C43.2536 34.4181 43.2537 34.4177 43.2536 34.4179C43.0332 35.1454 42.5449 35.7628 41.8874 36.1445C41.2297 36.5262 40.4517 36.6441 39.7105 36.4744L39.7092 36.4741L36.0075 35.6167C35.4107 35.4845 34.7873 35.5462 34.228 35.7928C33.668 36.0398 33.2016 36.4592 32.8969 36.99C32.5921 37.5207 32.4649 38.1349 32.5338 38.743C32.6027 39.351 32.8641 39.9211 33.2798 40.3702C33.2799 40.3702 33.2798 40.3701 33.2798 40.3702L35.872 43.1674C36.3851 43.7249 36.6698 44.4549 36.6698 45.2125C36.6698 45.9702 36.385 46.7001 35.872 47.2576L35.8708 47.2589L33.2798 50.0549L33.279 50.0558C32.8614 50.5042 32.5984 51.0746 32.5285 51.6834C32.4586 52.2921 32.5855 52.9073 32.8907 53.4387C33.1959 53.97 33.6632 54.3897 34.2242 54.6362C34.7848 54.8825 35.4094 54.9429 36.0068 54.8086C36.0072 54.8085 36.0077 54.8084 36.0082 54.8083L39.7092 53.9509C40.4509 53.7794 41.2302 53.8966 41.8885 54.2787C42.5463 54.6605 43.0343 55.2782 43.2534 56.0065C43.2536 56.0071 43.2538 56.0076 43.254 56.0082L44.3799 59.6619C44.5562 60.2478 44.9166 60.7613 45.4076 61.1263C45.8987 61.4914 46.4942 61.6885 47.1061 61.6885C47.7179 61.6885 48.3135 61.4914 48.8045 61.1263C49.2956 60.7613 49.656 60.2478 49.8323 59.6619L49.8328 59.6603L50.9447 56.01C50.9449 56.0094 50.9451 56.0087 50.9452 56.0081C51.1612 55.281 51.6448 54.6629 52.2986 54.2785C52.953 53.8937 53.7291 53.7716 54.47 53.937L54.4739 53.9379L58.175 54.7953C58.1754 54.7954 58.1759 54.7955 58.1764 54.7956C58.7737 54.9299 59.3984 54.8695 59.959 54.6232C60.52 54.3767 60.9873 53.957 61.2925 53.4257C61.5976 52.8943 61.7246 52.2791 61.6547 51.6704C61.5848 51.0616 61.3218 50.4912 60.9042 50.0428L60.9033 50.0419L58.3123 47.2459L58.3112 47.2446C57.7981 46.6871 57.5133 45.9572 57.5133 45.1995C57.5133 44.4419 57.7981 43.7119 58.3112 43.1544L58.3127 43.1528L60.9067 40.3598L60.9082 40.3582C61.3276 39.9104 61.5922 39.3398 61.6631 38.7304C61.7339 38.121 61.6073 37.5049 61.3017 36.9728C60.9962 36.4408 60.5279 36.0209 59.9658 35.7749C59.404 35.529 58.7781 35.4699 58.1802 35.6063C58.1799 35.6064 58.1804 35.6062 58.1802 35.6063L54.4769 36.4641C53.7353 36.6357 52.956 36.5185 52.2977 36.1364C51.6396 35.7544 51.1516 35.1365 50.9325 34.4078C50.9324 34.4075 50.9323 34.4072 50.9322 34.4068L49.8198 30.7547C49.6424 30.1689 49.2807 29.6543 48.7893 29.2903ZM47.0881 27.7311C47.9149 27.7297 48.7201 27.9946 49.3845 28.4867C50.049 28.979 50.537 29.6731 50.7766 30.464C50.7766 30.4641 50.7766 30.464 50.7766 30.464L51.89 34.1192C52.0358 34.6049 52.3611 35.0169 52.7997 35.2715C53.2383 35.5261 53.7573 35.6042 54.2514 35.4899L57.9552 34.6319L57.9568 34.6316C58.7637 34.4473 59.6084 34.5269 60.3667 34.8588C61.125 35.1906 61.7567 35.7571 62.1689 36.4748C62.5811 37.1926 62.752 38.0237 62.6564 38.8459C62.5609 39.6677 62.2042 40.4371 61.6387 41.041C61.6385 41.0413 61.6382 41.0416 61.638 41.0419L59.047 43.8316C59.0468 43.8318 59.0472 43.8314 59.047 43.8316C58.7041 44.2044 58.5133 44.693 58.5133 45.1995C58.5133 45.706 58.7036 46.1939 59.0464 46.5667C59.0466 46.567 59.0461 46.5665 59.0464 46.5667L61.636 49.3613C61.6362 49.3615 61.6365 49.3618 61.6368 49.3621C62.1995 49.9667 62.554 50.7357 62.6482 51.5563C62.7424 52.3774 62.5712 53.207 62.1596 53.9236C61.7481 54.6403 61.1178 55.2063 60.3612 55.5387C59.6046 55.8711 58.7614 55.9525 57.9552 55.7708L57.9522 55.7701L54.2521 54.913C54.2515 54.9129 54.2509 54.9127 54.2503 54.9126C53.7572 54.803 53.2409 54.8845 52.8055 55.1405C52.3696 55.3968 52.0471 55.8091 51.9035 56.2941L51.9024 56.2977L50.7899 59.9501C50.7898 59.9505 50.7897 59.9508 50.7895 59.9512C50.5512 60.7424 50.0643 61.4359 49.4011 61.9289C48.7376 62.4221 47.9328 62.6885 47.1061 62.6885C46.2793 62.6885 45.4746 62.4221 44.811 61.9289C44.148 61.436 43.6612 60.7427 43.4228 59.9517C43.4226 59.9511 43.4224 59.9506 43.4223 59.9501L42.2973 56.2993L42.2962 56.2958C42.1504 55.8101 41.8251 55.3981 41.3865 55.1436C40.9479 54.889 40.429 54.8109 39.9349 54.9251C39.9349 54.9251 39.935 54.9251 39.9349 54.9251L36.2309 55.7831L36.228 55.7838C35.4218 55.9655 34.5786 55.8841 33.822 55.5517C33.0653 55.2193 32.4351 54.6533 32.0235 53.9366C31.612 53.22 31.4408 52.3904 31.535 51.5693C31.6292 50.7486 31.9837 49.9796 32.5466 49.3749C32.5468 49.3747 32.5464 49.3751 32.5466 49.3749L35.1362 46.5804C35.1364 46.5802 35.136 46.5807 35.1362 46.5804C35.4789 46.2076 35.6698 45.719 35.6698 45.2125C35.6698 44.706 35.4795 44.218 35.1367 43.8452C35.1365 43.845 35.1369 43.8454 35.1367 43.8452L32.5463 41.0499C31.9857 40.4444 31.6331 39.6755 31.5402 38.8556C31.4472 38.0357 31.6188 37.2075 32.0297 36.492C32.4406 35.7764 33.0694 35.2109 33.8244 34.8779C34.5794 34.5449 35.4211 34.4619 36.2266 34.6409L36.2309 34.6419L39.9337 35.4996C39.9338 35.4997 39.9335 35.4996 39.9337 35.4996C40.4278 35.6126 40.947 35.5341 41.3854 35.2796C41.824 35.025 42.1496 34.6135 42.2965 34.1282L43.409 30.4758C43.4092 30.4753 43.4093 30.4749 43.4094 30.4745C43.6465 29.6829 44.1321 28.9887 44.7944 28.4946C45.4571 28.0002 46.2614 27.7325 47.0881 27.7311Z" />
      <path fill-rule="evenodd" clip-rule="evenodd" d="M12.969 9.53101C12.9275 9.53101 12.8877 9.54749 12.8583 9.57684C12.829 9.60619 12.8125 9.646 12.8125 9.68751C12.8125 9.72901 12.829 9.76882 12.8583 9.79817C12.8877 9.82752 12.9275 9.84401 12.969 9.84401V10.844C12.6623 10.844 12.3681 10.7222 12.1512 10.5053C11.9343 10.2884 11.8125 9.99423 11.8125 9.68751C11.8125 9.38078 11.9343 9.08662 12.1512 8.86974C12.3681 8.65285 12.6623 8.53101 12.969 8.53101V9.53101Z" />
      <path fill-rule="evenodd" clip-rule="evenodd" d="M12.9688 8.53101C13.2755 8.53101 13.5696 8.65285 13.7865 8.86974C14.0034 9.08662 14.1252 9.38078 14.1252 9.68751C14.1252 9.99423 14.0034 10.2884 13.7865 10.5053C13.5696 10.7222 13.2755 10.844 12.9688 10.844V9.84401C13.0103 9.84401 13.0501 9.82752 13.0794 9.79817C13.1088 9.76882 13.1252 9.72901 13.1252 9.68751C13.1252 9.646 13.1088 9.60619 13.0794 9.57684C13.0501 9.54749 13.0103 9.53101 12.9688 9.53101V8.53101Z" />
      <path fill-rule="evenodd" clip-rule="evenodd" d="M22.1565 9.53101C22.115 9.53101 22.0752 9.54749 22.0458 9.57684C22.0165 9.60619 22 9.646 22 9.68751C22 9.72901 22.0165 9.76882 22.0458 9.79817C22.0752 9.82752 22.115 9.84401 22.1565 9.84401V10.844C21.8498 10.844 21.5556 10.7222 21.3387 10.5053C21.1218 10.2884 21 9.99423 21 9.68751C21 9.38078 21.1218 9.08662 21.3387 8.86974C21.5556 8.65285 21.8498 8.53101 22.1565 8.53101V9.53101Z" />
      <path fill-rule="evenodd" clip-rule="evenodd" d="M22.1562 8.53101C22.463 8.53101 22.7571 8.65285 22.974 8.86974C23.1909 9.08662 23.3127 9.38078 23.3127 9.68751C23.3127 9.99423 23.1909 10.2884 22.974 10.5053C22.7571 10.7222 22.463 10.844 22.1562 10.844V9.84401C22.1978 9.84401 22.2376 9.82752 22.2669 9.79817C22.2963 9.76882 22.3127 9.72901 22.3127 9.68751C22.3127 9.646 22.2963 9.60619 22.2669 9.57684C22.2376 9.54749 22.1978 9.53101 22.1562 9.53101V8.53101Z" />
      <path fill-rule="evenodd" clip-rule="evenodd" d="M12.969 25.281C12.9275 25.281 12.8877 25.2975 12.8583 25.3268C12.829 25.3562 12.8125 25.396 12.8125 25.4375C12.8125 25.479 12.829 25.5188 12.8583 25.5482C12.8877 25.5775 12.9275 25.594 12.969 25.594V26.594C12.6623 26.594 12.3681 26.4722 12.1512 26.2553C11.9343 26.0384 11.8125 25.7442 11.8125 25.4375C11.8125 25.1308 11.9343 24.8366 12.1512 24.6197C12.3681 24.4028 12.6623 24.281 12.969 24.281V25.281Z" />
      <path fill-rule="evenodd" clip-rule="evenodd" d="M12.9688 24.281C13.2755 24.281 13.5696 24.4028 13.7865 24.6197C14.0034 24.8366 14.1252 25.1308 14.1252 25.4375C14.1252 25.7442 14.0034 26.0384 13.7865 26.2553C13.5696 26.4722 13.2755 26.594 12.9688 26.594V25.594C13.0103 25.594 13.0501 25.5775 13.0794 25.5482C13.1088 25.5188 13.1252 25.479 13.1252 25.4375C13.1252 25.396 13.1088 25.3562 13.0794 25.3268C13.0501 25.2975 13.0103 25.281 12.9688 25.281V24.281Z" />
      <path fill-rule="evenodd" clip-rule="evenodd" d="M12.969 41.031C12.9275 41.031 12.8877 41.0475 12.8583 41.0768C12.829 41.1062 12.8125 41.146 12.8125 41.1875C12.8125 41.229 12.829 41.2688 12.8583 41.2982C12.8877 41.3275 12.9275 41.344 12.969 41.344V42.344C12.6623 42.344 12.3681 42.2222 12.1512 42.0053C11.9343 41.7884 11.8125 41.4942 11.8125 41.1875C11.8125 40.8808 11.9343 40.5866 12.1512 40.3697C12.3681 40.1529 12.6623 40.031 12.969 40.031V41.031Z" />
      <path fill-rule="evenodd" clip-rule="evenodd" d="M12.9688 40.031C13.2755 40.031 13.5696 40.1529 13.7865 40.3697C14.0034 40.5866 14.1252 40.8808 14.1252 41.1875C14.1252 41.4942 14.0034 41.7884 13.7865 42.0053C13.5696 42.2222 13.2755 42.344 12.9688 42.344V41.344C13.0103 41.344 13.0501 41.3275 13.0794 41.2982C13.1088 41.2688 13.1252 41.229 13.1252 41.1875C13.1252 41.146 13.1088 41.1062 13.0794 41.0768C13.0501 41.0475 13.0103 41.031 12.9688 41.031V40.031Z" />
      <path fill-rule="evenodd" clip-rule="evenodd" d="M22.1565 25.281C22.115 25.281 22.0752 25.2975 22.0458 25.3268C22.0165 25.3562 22 25.396 22 25.4375C22 25.479 22.0165 25.5188 22.0458 25.5482C22.0752 25.5775 22.115 25.594 22.1565 25.594V26.594C21.8498 26.594 21.5556 26.4722 21.3387 26.2553C21.1218 26.0384 21 25.7442 21 25.4375C21 25.1308 21.1218 24.8366 21.3387 24.6197C21.5556 24.4028 21.8498 24.281 22.1565 24.281V25.281Z" />
      <path fill-rule="evenodd" clip-rule="evenodd" d="M22.1562 24.281C22.463 24.281 22.7571 24.4028 22.974 24.6197C23.1909 24.8366 23.3127 25.1308 23.3127 25.4375C23.3127 25.7442 23.1909 26.0384 22.974 26.2553C22.7571 26.4722 22.463 26.594 22.1562 26.594V25.594C22.1978 25.594 22.2376 25.5775 22.2669 25.5482C22.2963 25.5188 22.3127 25.479 22.3127 25.4375C22.3127 25.396 22.2963 25.3562 22.2669 25.3268C22.2376 25.2975 22.1978 25.281 22.1562 25.281V24.281Z" />
      <path fill-rule="evenodd" clip-rule="evenodd" d="M22.1565 41.031C22.115 41.031 22.0752 41.0475 22.0458 41.0768C22.0165 41.1062 22 41.146 22 41.1875C22 41.229 22.0165 41.2688 22.0458 41.2982C22.0752 41.3275 22.115 41.344 22.1565 41.344V42.344C21.8498 42.344 21.5556 42.2222 21.3387 42.0053C21.1218 41.7884 21 41.4942 21 41.1875C21 40.8808 21.1218 40.5866 21.3387 40.3697C21.5556 40.1529 21.8498 40.031 22.1565 40.031V41.031Z" />
      <path fill-rule="evenodd" clip-rule="evenodd" d="M22.1562 40.031C22.463 40.031 22.7571 40.1529 22.974 40.3697C23.1909 40.5866 23.3127 40.8808 23.3127 41.1875C23.3127 41.4942 23.1909 41.7884 22.974 42.0053C22.7571 42.2222 22.463 42.344 22.1562 42.344V41.344C22.1978 41.344 22.2376 41.3275 22.2669 41.2982C22.2963 41.2688 22.3127 41.229 22.3127 41.1875C22.3127 41.146 22.2963 41.1062 22.2669 41.0768C22.2376 41.0475 22.1978 41.031 22.1562 41.031V40.031Z" />
    </svg>
  