
    <svg viewBox="0 0 64 64" xmlns="http://www.w3.org/2000/svg">
      <path fill-rule="evenodd" clip-rule="evenodd" d="M16.7138 11.9894C18.0875 10.6157 19.9506 9.84399 21.8934 9.84399C23.8361 9.84399 25.6992 10.6157 27.0729 11.9894C28.4466 13.3631 29.2184 15.2263 29.2184 17.169C29.2184 19.1117 28.4466 20.9748 27.0729 22.3486C25.6992 23.7223 23.8361 24.494 21.8934 24.494C19.9506 24.494 18.0875 23.7223 16.7138 22.3486C15.3401 20.9748 14.5684 19.1117 14.5684 17.169C14.5684 15.2263 15.3401 13.3631 16.7138 11.9894ZM21.8934 10.844C20.2159 10.844 18.6071 11.5104 17.4209 12.6965C16.2347 13.8827 15.5684 15.4915 15.5684 17.169C15.5684 18.8465 16.2347 20.4553 17.4209 21.6414C18.6071 22.8276 20.2159 23.494 21.8934 23.494C23.5709 23.494 25.1796 22.8276 26.3658 21.6414C27.552 20.4553 28.2184 18.8465 28.2184 17.169C28.2184 15.4915 27.552 13.8827 26.3658 12.6965C25.1796 11.5104 23.5709 10.844 21.8934 10.844Z" />
      <path fill-rule="evenodd" clip-rule="evenodd" d="M10.5907 37.406H33.1954C32.9372 31.3548 28.0124 26.593 21.8931 26.593C15.7738 26.593 10.8489 31.3548 10.5907 37.406ZM9.58008 37.906C9.58008 31.0669 15.0539 25.593 21.8931 25.593C28.7322 25.593 34.2061 31.0669 34.2061 37.906C34.2061 38.1822 33.9822 38.406 33.7061 38.406H10.0801C9.80394 38.406 9.58008 38.1822 9.58008 37.906Z" />
      <path fill-rule="evenodd" clip-rule="evenodd" d="M37.4062 18.219C37.4062 17.9429 37.6301 17.719 37.9062 17.719H49.4563C49.7324 17.719 49.9563 17.9429 49.9563 18.219C49.9563 18.4951 49.7324 18.719 49.4563 18.719H37.9062C37.6301 18.719 37.4062 18.4951 37.4062 18.219Z" />
      <path fill-rule="evenodd" clip-rule="evenodd" d="M37.4062 26.094C37.4062 25.8179 37.6301 25.594 37.9062 25.594H53.6562C53.9324 25.594 54.1562 25.8179 54.1562 26.094C54.1562 26.3701 53.9324 26.594 53.6562 26.594H37.9062C37.6301 26.594 37.4062 26.3701 37.4062 26.094Z" />
      <path fill-rule="evenodd" clip-rule="evenodd" d="M1.96875 6.40602C1.96875 4.02879 4.03069 1.96802 6.40675 1.96802H57.5938C59.971 1.96802 62.0317 4.02996 62.0317 6.40602V28.719C62.0317 28.9952 61.8079 29.219 61.5317 29.219C61.2556 29.219 61.0317 28.9952 61.0317 28.719V6.40602C61.0317 4.58208 59.4185 2.96802 57.5938 2.96802H6.40675C4.58281 2.96802 2.96875 4.58124 2.96875 6.40602V45.781C2.96875 47.605 4.58197 49.219 6.40675 49.219H28.7197C28.9959 49.219 29.2197 49.4429 29.2197 49.719C29.2197 49.9952 28.9959 50.219 28.7197 50.219H6.40675C4.02953 50.219 1.96875 48.1571 1.96875 45.781V6.40602Z" />
      <path fill-rule="evenodd" clip-rule="evenodd" d="M49.7153 37.406C51.3418 37.3911 52.955 37.6985 54.462 38.3105C55.9689 38.9226 57.3397 39.8271 58.4951 40.972C59.6505 42.1168 60.5676 43.4791 61.1935 44.9804C61.8194 46.4816 62.1416 48.092 62.1416 49.7185C62.1416 51.345 61.8194 52.9554 61.1935 54.4567C60.5676 55.9579 59.6505 57.3203 58.4951 58.4651C57.3397 59.6099 55.9689 60.5144 54.462 61.1265C52.955 61.7385 51.3418 62.046 49.7153 62.031C46.4695 62.0011 43.3667 60.6908 41.0821 58.385C38.7974 56.0792 37.5156 52.9645 37.5156 49.7185C37.5156 46.4725 38.7974 43.3579 41.0821 41.0521C43.3667 38.7463 46.4695 37.4359 49.7153 37.406ZM54.0857 39.237C52.7011 38.6747 51.2189 38.3922 49.7245 38.406C46.7423 38.4334 43.8915 39.6374 41.7924 41.7559C39.6933 43.8744 38.5156 46.7362 38.5156 49.7185C38.5156 52.7009 39.6933 55.5626 41.7924 57.6811C43.8915 59.7997 46.7423 61.0036 49.7245 61.031C51.2189 61.0448 52.7011 60.7623 54.0857 60.2C55.4703 59.6377 56.7297 58.8066 57.7912 57.7547C58.8528 56.7029 59.6954 55.4512 60.2705 54.0718C60.8455 52.6925 61.1416 51.2129 61.1416 49.7185C61.1416 48.2241 60.8455 46.7445 60.2705 45.3652C59.6954 43.9859 58.8528 42.7341 57.7912 41.6823C56.7297 40.6305 55.4703 39.7994 54.0857 39.237Z" />
      <path fill-rule="evenodd" clip-rule="evenodd" d="M53.9583 46.6963C54.1779 46.8636 54.2203 47.1774 54.053 47.397L49.853 52.91C49.8394 52.9278 49.8246 52.9447 49.8088 52.9606L49.797 52.9724C49.674 53.0954 49.5213 53.2481 49.3614 53.3681C49.2016 53.488 48.9624 53.632 48.6682 53.632C48.6627 53.632 48.6572 53.632 48.6515 53.632C48.3794 53.6322 47.9363 53.6325 47.5273 53.2222C47.5272 53.2221 47.5274 53.2223 47.5273 53.2222L45.4277 51.1226C45.2324 50.9273 45.2324 50.6107 45.4277 50.4155C45.623 50.2202 45.9395 50.2202 46.1348 50.4155L48.2348 52.5155C48.3005 52.5814 48.3512 52.6029 48.396 52.6142C48.4559 52.6292 48.5235 52.6319 48.6567 52.632C48.6649 52.6289 48.6978 52.6158 48.7613 52.5682C48.8528 52.4995 48.9515 52.4035 49.078 52.2772L53.2575 46.791C53.4249 46.5714 53.7386 46.5289 53.9583 46.6963Z" />
    </svg>
  