
    <svg xmlns="http://www.w3.org/2000/svg" viewBox="0 0 2500 2500">
      <path d="M 888.500 54.469 C 887.950 54.665, 886.271 55.096, 884.768 55.427 C 883.266 55.758, 880.386 57.478, 878.369 59.249 C 870.937 65.775, 871.531 51.991, 871.227 225 L 870.955 380.500 775.227 422.946 C 722.577 446.291, 677.700 466.558, 675.500 467.983 C 673.300 469.409, 670.375 472.583, 669 475.038 L 666.500 479.500 666.238 677.250 L 665.976 875 413.738 875.003 C 136.003 875.007, 154.050 874.611, 134.500 881.128 C 93.054 894.945, 62.852 929.497, 53.321 974 C 51.569 982.177, 51.500 1010.211, 51.500 1710.664 L 51.500 2438.828 54.500 2443.087 C 56.150 2445.430, 59.483 2448.394, 61.907 2449.673 L 66.315 2452 685.689 2452 C 1242.471 2452, 1305.439 2451.844, 1308.768 2450.452 C 1313.710 2448.388, 1316.876 2445.341, 1319.110 2440.500 C 1322.896 2432.297, 1320.292 2422.633, 1312.657 2416.558 L 1308.814 2413.500 1058.657 2413 L 808.500 2412.500 807.981 1695.500 C 807.484 1009.607, 807.383 978.180, 805.662 971.120 C 794.032 923.411, 758.815 888.092, 712.500 877.689 L 706.500 876.342 706.500 686.485 L 706.500 496.628 1122.500 311.802 C 1351.300 210.148, 1541.336 125.833, 1544.802 124.436 C 1558.975 118.721, 1574.434 122.712, 1582.684 134.216 C 1589.506 143.728, 1589 125.825, 1589 357.535 L 1589 567 1443.250 567.022 C 1304.435 567.043, 1297.309 567.131, 1293.491 568.865 C 1288.320 571.214, 1283.281 576.988, 1282.426 581.541 C 1280.629 591.121, 1284.614 600.182, 1292.250 603.879 L 1296.631 606 1442.816 606 L 1589 606 1589 689 L 1589 772 1340.750 772.022 C 1101.248 772.043, 1092.359 772.109, 1088.500 773.896 C 1080.731 777.493, 1077 783.401, 1077 792.105 C 1077 798.964, 1079.978 804.396, 1085.742 808.052 L 1090.392 811 1339.696 811 L 1589 811 1589.006 904.750 C 1589.009 968.601, 1589.354 999.736, 1590.088 1002.377 C 1591.706 1008.206, 1597.584 1013.950, 1603.457 1015.441 C 1613.005 1017.865, 1621.958 1013.970, 1626.430 1005.447 L 1628.500 1001.500 1628.500 573.500 C 1628.500 241.651, 1628.227 144.211, 1627.286 139.760 C 1622.066 115.082, 1604.166 94.421, 1581.037 86.378 C 1565.511 80.979, 1549.361 80.966, 1534.201 86.341 C 1530.515 87.648, 1389.575 150.029, 1221 224.965 C 1052.425 299.902, 913.712 361.443, 912.750 361.724 C 911.089 362.207, 911 354.861, 910.994 217.367 C 910.991 119.364, 910.650 71.278, 909.940 68.723 C 908.752 64.446, 903.982 58.552, 900.102 56.567 C 897.355 55.162, 890.191 53.867, 888.500 54.469 M 161.500 914.715 C 143.216 917.243, 126.966 925.927, 113.091 940.585 C 99.512 954.931, 92.934 969.580, 91.023 989.732 C 90.415 996.145, 90.001 1037.204, 90.001 1091.250 L 90 1182 286.250 1182.006 C 420.108 1182.009, 483.701 1182.345, 486.277 1183.060 C 490.744 1184.300, 496.458 1189.053, 498.708 1193.398 C 500.748 1197.337, 500.720 1206.707, 498.657 1210.696 C 496.117 1215.608, 490.663 1219.692, 485.030 1220.900 C 481.400 1221.679, 422.933 1222, 284.951 1222 L 90 1222 90 1304.476 L 90 1386.952 185.750 1387.226 C 272.788 1387.475, 281.773 1387.651, 284.500 1389.161 C 298.814 1397.084, 298.814 1416.916, 284.500 1424.839 C 281.773 1426.349, 272.788 1426.525, 185.749 1426.774 L 89.998 1427.048 90.249 1919.774 L 90.500 2412.500 173.224 2412.756 L 255.948 2413.012 256.240 2288.256 L 256.532 2163.500 258.826 2156 C 265.764 2133.325, 284.179 2114.912, 307 2107.828 L 314.500 2105.500 429 2105.500 C 553.321 2105.500, 547.811 2105.265, 560.846 2111.114 C 581.993 2120.603, 597.911 2140.493, 601.917 2162.434 C 602.656 2166.484, 603 2207.181, 603 2290.684 L 603 2413 686.005 2413 L 769.010 2413 768.755 1697.750 L 768.500 982.500 765.692 973.500 C 756.155 942.932, 730.332 919.991, 699.901 915.054 C 693.746 914.055, 168.660 913.724, 161.500 914.715 M 1822 1080.693 C 1799.662 1083.076, 1776.433 1091.724, 1756.689 1105.008 C 1729.670 1123.188, 1711.192 1145.890, 1699.723 1175 C 1698.315 1178.575, 1686.767 1215.700, 1674.061 1257.500 C 1646.843 1347.045, 1646.584 1347.696, 1632.615 1361.522 C 1615.803 1378.162, 1595.135 1386.218, 1573.202 1384.680 C 1567.177 1384.257, 1541.887 1378.810, 1491 1366.974 C 1403.365 1346.590, 1400.281 1345.999, 1381.629 1346.003 C 1355.961 1346.009, 1333.428 1351.697, 1310.330 1364.003 C 1281.462 1379.382, 1259.369 1402.784, 1245.122 1433.077 C 1235.865 1452.758, 1232.164 1467.913, 1231.314 1489.624 C 1230.203 1517.982, 1234.982 1541.187, 1246.730 1564.479 C 1256.763 1584.370, 1257.909 1585.739, 1324.500 1657.411 C 1352 1687.009, 1376.252 1713.538, 1378.392 1716.363 C 1383.914 1723.650, 1389.694 1736.232, 1391.548 1745 C 1393.811 1755.701, 1393.596 1772.514, 1391.071 1782.296 C 1388.570 1791.982, 1384.322 1800.997, 1378.659 1808.635 C 1376.266 1811.861, 1352.118 1838.350, 1324.995 1867.500 C 1297.873 1896.650, 1272.455 1924.179, 1268.512 1928.675 C 1250.646 1949.045, 1239.743 1970.943, 1233.779 1998.435 C 1230.792 2012.199, 1230.546 2044.072, 1233.326 2056.976 C 1243.706 2105.152, 1273.053 2143.372, 1315.500 2163.993 C 1344.916 2178.284, 1376.250 2182.870, 1407 2177.385 C 1411.675 2176.551, 1448.498 2168.231, 1488.830 2158.896 C 1529.161 2149.561, 1565.718 2141.478, 1570.068 2140.932 C 1594.584 2137.858, 1622.569 2149.644, 1638.559 2169.778 C 1646.980 2180.382, 1649.830 2188.211, 1673.023 2264.476 C 1685.229 2304.613, 1696.556 2341.288, 1698.194 2345.976 C 1714.981 2394.016, 1757.123 2431.167, 1807.239 2442.105 C 1825.996 2446.199, 1850.437 2446.380, 1870 2442.570 C 1913.230 2434.152, 1954.053 2403.034, 1973.731 2363.500 C 1979.214 2352.484, 1981.746 2344.867, 2001.484 2280 C 2028.475 2191.295, 2028.765 2190.391, 2032.699 2182.500 C 2046.448 2154.921, 2079.016 2137.181, 2108.996 2140.940 C 2113.394 2141.492, 2151.082 2149.818, 2192.746 2159.442 C 2234.411 2169.067, 2271.875 2177.497, 2276 2178.177 C 2285.514 2179.744, 2309.068 2179.689, 2319.500 2178.075 C 2384.280 2168.053, 2435.125 2118.067, 2446.461 2053.262 C 2448.386 2042.258, 2448.449 2017.663, 2446.584 2005.500 C 2442.221 1977.047, 2430.294 1951.236, 2411.466 1929.500 C 2408.607 1926.200, 2383.873 1899.425, 2356.501 1870 C 2329.129 1840.575, 2304.740 1814.025, 2302.304 1811 C 2292.310 1798.593, 2287.055 1784.143, 2286.268 1766.911 C 2285.426 1748.474, 2289.103 1733.928, 2298.064 1720.247 C 2300.317 1716.809, 2326.158 1688.151, 2355.488 1656.564 C 2414.261 1593.270, 2416.915 1590.263, 2424.850 1578 C 2439.933 1554.691, 2446.808 1531.776, 2447.712 1501.803 C 2448.649 1470.745, 2443.622 1449.390, 2429.349 1423.794 C 2406.722 1383.217, 2368.637 1356.256, 2322.107 1347.875 C 2312.297 1346.108, 2307.868 1345.861, 2293.500 1346.277 C 2273.643 1346.852, 2281.381 1345.318, 2186 1367.585 C 2114.610 1384.252, 2114.481 1384.277, 2102 1384.389 C 2086.878 1384.523, 2080.689 1383.073, 2066.500 1376.067 C 2049.508 1367.678, 2035.970 1353.061, 2029.634 1336.264 C 2028.231 1332.544, 2016.891 1296.024, 2004.434 1255.110 C 1981.028 1178.230, 1977.914 1169.087, 1970.949 1156.782 C 1948.057 1116.336, 1907.647 1088.290, 1862.500 1081.513 C 1853.440 1080.153, 1831.272 1079.704, 1822 1080.693 M 1824.472 1119.972 C 1791.627 1124.648, 1760.821 1145.044, 1744.379 1173 C 1737.656 1184.431, 1734.733 1193.009, 1712.007 1268 C 1700.423 1306.225, 1689.763 1340.875, 1688.318 1345 C 1674.951 1383.165, 1644.023 1411.309, 1604.693 1421.096 C 1594.040 1423.748, 1571.931 1424.740, 1561.264 1423.046 C 1556.994 1422.368, 1519.750 1414.014, 1478.500 1404.482 C 1437.250 1394.951, 1399.980 1386.668, 1395.678 1386.076 C 1367.692 1382.226, 1337.534 1390.402, 1313.802 1408.274 C 1287.363 1428.184, 1270.012 1463.141, 1270.012 1496.500 C 1270.012 1519.378, 1278.659 1545.684, 1291.952 1563.244 C 1294.592 1566.731, 1320.936 1595.628, 1350.493 1627.460 C 1380.051 1659.292, 1406.587 1688.523, 1409.462 1692.418 C 1425.109 1713.614, 1432.326 1735.728, 1432.334 1762.500 C 1432.341 1788.452, 1426.236 1808.525, 1411.955 1829.500 C 1406.163 1838.007, 1405.556 1838.681, 1344.599 1904.309 C 1317.704 1933.265, 1293.474 1960.004, 1290.755 1963.728 C 1288.036 1967.453, 1283.850 1974.550, 1281.453 1979.500 C 1266.487 2010.398, 1266.518 2047.436, 1281.536 2077.267 C 1288.274 2090.654, 1293.348 2097.576, 1304.427 2108.500 C 1319.054 2122.922, 1334.346 2131.437, 1355.969 2137.201 C 1365.723 2139.802, 1387.123 2140.736, 1397.785 2139.026 C 1402.028 2138.346, 1437.450 2130.388, 1476.500 2121.343 C 1557.898 2102.487, 1558.730 2102.313, 1571.770 2101.429 C 1611.177 2098.759, 1652.011 2119.252, 1674.527 2153 C 1685.420 2169.326, 1683.818 2164.789, 1715.988 2270.395 C 1737.566 2341.229, 1740.115 2347.927, 1750.931 2362.216 C 1765.389 2381.315, 1788.402 2396.567, 1812.500 2403.023 C 1822.729 2405.763, 1844.288 2406.773, 1856 2405.060 C 1879.886 2401.568, 1900.292 2390.994, 1918.588 2372.627 C 1930.119 2361.051, 1937.157 2350.414, 1942.472 2336.528 C 1944.372 2331.563, 1955.631 2295.550, 1967.491 2256.500 C 1979.351 2217.450, 1990.017 2182.800, 1991.194 2179.500 C 2000.628 2153.046, 2019.059 2130.982, 2043.801 2116.526 C 2052.704 2111.324, 2062.355 2107.528, 2074.773 2104.344 C 2084.176 2101.932, 2087.351 2101.596, 2100.500 2101.618 C 2108.750 2101.632, 2118.425 2102.213, 2122 2102.910 C 2125.575 2103.606, 2160.450 2111.590, 2199.500 2120.652 C 2238.550 2129.713, 2274.100 2137.773, 2278.500 2138.562 C 2301.435 2142.676, 2327.011 2138.626, 2349.309 2127.348 C 2368.126 2117.832, 2387.459 2098.142, 2397.275 2078.500 C 2415.886 2041.255, 2411.766 1994.234, 2387.048 1961.798 C 2384.408 1958.334, 2366.236 1938.275, 2346.666 1917.223 C 2265.122 1829.500, 2268.773 1833.685, 2260.537 1818.500 C 2245.085 1790.011, 2242.252 1754.703, 2252.930 1723.697 C 2257.291 1711.036, 2265.965 1696.113, 2275.155 1685.465 C 2277.545 1682.696, 2302.225 1655.967, 2330 1626.067 C 2357.775 1596.167, 2382.628 1569.052, 2385.230 1565.811 C 2399.738 1547.735, 2407.563 1526.407, 2408.706 1501.817 C 2410.140 1470.975, 2399.504 1442.647, 2377.763 1419.406 C 2356.820 1397.018, 2323.132 1383.532, 2292.574 1385.302 C 2280.312 1386.013, 2286.991 1384.614, 2198.500 1405.008 C 2158.350 1414.261, 2122.006 1422.383, 2117.736 1423.055 C 2101.109 1425.675, 2074.632 1422.688, 2059.500 1416.485 C 2029.618 1404.235, 2006.057 1381.493, 1994.073 1353.331 C 1992.440 1349.494, 1982.283 1317.363, 1971.502 1281.927 C 1960.720 1246.492, 1949.853 1210.975, 1947.351 1203 C 1939.880 1179.178, 1932.443 1166.232, 1917.931 1151.785 C 1897.310 1131.257, 1872.121 1120.329, 1843.500 1119.493 C 1836.350 1119.285, 1827.787 1119.500, 1824.472 1119.972 M 1815.134 1597.535 C 1760.238 1606.105, 1715.066 1639.145, 1689.949 1689.101 C 1671.732 1725.334, 1667.892 1769.536, 1679.496 1809.425 C 1695.842 1865.611, 1741.146 1909.645, 1797.500 1924.119 C 1818.377 1929.482, 1845.449 1930.861, 1865.391 1927.579 C 1932.187 1916.585, 1985.398 1867.915, 2001.392 1803.183 C 2004.385 1791.069, 2004.974 1787.213, 2005.930 1773.500 C 2011.467 1694.063, 1958.450 1620.775, 1881.178 1601.045 C 1861.704 1596.073, 1833.948 1594.598, 1815.134 1597.535 M 1821.500 1636.441 C 1795.481 1639.995, 1768.646 1653.465, 1749.556 1672.556 C 1711.306 1710.806, 1701.429 1767.773, 1724.421 1817.536 C 1737.604 1846.068, 1765.711 1871.642, 1795.824 1882.504 C 1811.915 1888.309, 1819.156 1889.461, 1839.500 1889.457 C 1856.130 1889.453, 1859.685 1889.157, 1868 1887.086 C 1917.501 1874.753, 1953.555 1838.103, 1964.491 1789 C 1967.054 1777.493, 1967.581 1755.528, 1965.595 1742.992 C 1961.755 1718.747, 1951.714 1697.458, 1935.131 1678.403 C 1907.061 1646.148, 1864.773 1630.532, 1821.500 1636.441 M 321.920 2145.010 C 311.998 2146.690, 303.681 2152.948, 299.047 2162.222 L 296 2168.319 296 2290.660 L 296 2413 430.019 2413 L 564.039 2413 563.769 2290.750 L 563.500 2168.500 561.201 2163.500 C 556.642 2153.586, 547.731 2146.798, 537 2145.065 C 529.374 2143.833, 329.176 2143.782, 321.920 2145.010" stroke="none" fill-rule="evenodd"></path>
    </svg>
  