
    <svg viewBox="0 0 64 64" xmlns="http://www.w3.org/2000/svg">
      <path fill-rule="evenodd" clip-rule="evenodd" d="M10.2617 21.5057C10.4612 21.3148 10.7777 21.3217 10.9686 21.5212C12.6441 23.2719 14.6581 24.6636 16.8881 25.6118C19.1181 26.56 21.5176 27.0449 23.9408 27.0369L23.9425 27.0369C26.3938 27.0372 28.8189 26.5332 31.0672 25.5564C31.3204 25.4463 31.615 25.5624 31.725 25.8157C31.835 26.069 31.7189 26.3635 31.4657 26.4735C29.0919 27.5049 26.5313 28.0371 23.9432 28.0369C21.3847 28.0452 18.8513 27.5332 16.4968 26.5321C14.142 25.5308 12.0154 24.0613 10.2462 22.2127C10.0553 22.0132 10.0622 21.6967 10.2617 21.5057Z" />
      <path fill-rule="evenodd" clip-rule="evenodd" d="M11.9727 19.2956C14.1587 17.1096 17.1236 15.8815 20.2151 15.8815C23.3066 15.8815 26.2715 17.1096 28.4575 19.2956C30.6435 21.4816 31.8716 24.4465 31.8716 27.538C31.8716 30.6295 30.6435 33.5943 28.4575 35.7804C26.2715 37.9664 23.3066 39.1945 20.2151 39.1945C17.1236 39.1945 14.1587 37.9664 11.9727 35.7804C9.78669 33.5943 8.55859 30.6295 8.55859 27.538C8.55859 24.4465 9.78669 21.4816 11.9727 19.2956ZM20.2151 16.8815C17.3888 16.8815 14.6783 18.0042 12.6798 20.0027C10.6813 22.0012 9.55859 24.7117 9.55859 27.538C9.55859 30.3642 10.6813 33.0748 12.6798 35.0733C14.6783 37.0717 17.3888 38.1945 20.2151 38.1945C23.0414 38.1945 25.7519 37.0717 27.7504 35.0733C29.7489 33.0748 30.8716 30.3642 30.8716 27.538C30.8716 24.7117 29.7489 22.0012 27.7504 20.0027C25.7519 18.0042 23.0414 16.8815 20.2151 16.8815Z" />
      <path fill-rule="evenodd" clip-rule="evenodd" d="M20.2148 43.131C17.8675 43.131 15.5431 43.5933 13.3744 44.4916C11.2057 45.3899 9.23516 46.7066 7.57531 48.3664C5.91546 50.0263 4.5988 51.9968 3.7005 54.1655C2.86603 56.1801 2.40775 58.3291 2.34684 60.506H38.0829C38.0219 58.3291 37.5637 56.1801 36.7292 54.1655C35.8309 51.9968 34.5142 50.0263 32.8544 48.3664C31.1945 46.7066 29.224 45.3899 27.0553 44.4916C24.8866 43.5933 22.5622 43.131 20.2148 43.131ZM12.9917 43.5678C15.2817 42.6192 17.7361 42.131 20.2148 42.131C22.6935 42.131 25.148 42.6192 27.438 43.5678C29.728 44.5163 31.8088 45.9066 33.5615 47.6593C35.3142 49.412 36.7045 51.4928 37.6531 53.7828C38.6016 56.0729 39.0898 58.5273 39.0898 61.006C39.0898 61.2821 38.866 61.506 38.5898 61.506H1.83984C1.5637 61.506 1.33984 61.2821 1.33984 61.006C1.33984 58.5273 1.82806 56.0729 2.77662 53.7828C3.72518 51.4928 5.1155 49.412 6.8682 47.6593C8.62091 45.9066 10.7017 44.5163 12.9917 43.5678Z" />
      <path fill-rule="evenodd" clip-rule="evenodd" d="M20.2148 47.381C20.491 47.381 20.7148 47.6048 20.7148 47.881V54.444C20.7148 54.7201 20.491 54.944 20.2148 54.944C19.9387 54.944 19.7148 54.7201 19.7148 54.444V47.881C19.7148 47.6048 19.9387 47.381 20.2148 47.381Z" />
      <path fill-rule="evenodd" clip-rule="evenodd" d="M40.4893 3.69972C41.9927 3.07699 43.6041 2.75647 45.2313 2.75647C46.8586 2.75647 48.47 3.07699 49.9734 3.69972C51.4768 4.32245 52.8428 5.2352 53.9935 6.38586C55.1441 7.53651 56.0569 8.90254 56.6796 10.4059C57.3023 11.9094 57.6228 13.5207 57.6228 15.148C57.6228 16.7752 57.3023 18.3866 56.6796 19.89C56.0569 21.3934 55.1441 22.7594 53.9935 23.9101C52.8428 25.0607 51.4768 25.9735 49.9734 26.5962C48.47 27.219 46.8586 27.5395 45.2313 27.5395C43.6041 27.5395 41.9927 27.219 40.4893 26.5962C38.9859 25.9735 37.6199 25.0607 36.4692 23.9101C35.3186 22.7594 34.4058 21.3934 33.7831 19.89C33.1604 18.3866 32.8398 16.7752 32.8398 15.148C32.8398 13.5207 33.1604 11.9094 33.7831 10.4059C34.4058 8.90254 35.3186 7.53651 36.4692 6.38586C37.6199 5.2352 38.9859 4.32245 40.4893 3.69972ZM45.2313 3.75647C43.7354 3.75647 42.2541 4.05112 40.872 4.6236C39.4899 5.19607 38.2341 6.03516 37.1763 7.09296C36.1185 8.15076 35.2794 9.40655 34.707 10.7886C34.1345 12.1707 33.8398 13.652 33.8398 15.148C33.8398 16.6439 34.1345 18.1252 34.707 19.5073C35.2794 20.8894 36.1185 22.1452 37.1763 23.203C38.2341 24.2608 39.4899 25.0999 40.872 25.6723C42.2541 26.2448 43.7354 26.5395 45.2313 26.5395C46.7273 26.5395 48.2086 26.2448 49.5907 25.6723C50.9728 25.0999 52.2286 24.2608 53.2864 23.203C54.3441 22.1452 55.1832 20.8894 55.7557 19.5073C56.3282 18.1252 56.6228 16.6439 56.6228 15.148C56.6228 13.652 56.3282 12.1707 55.7557 10.7886C55.1832 9.40655 54.3441 8.15076 53.2864 7.09296C52.2286 6.03516 50.9728 5.19607 49.5907 4.6236C48.2086 4.05112 46.7273 3.75647 45.2313 3.75647Z" />
      <path fill-rule="evenodd" clip-rule="evenodd" d="M53.33 23.2464C53.5253 23.0512 53.8419 23.0512 54.0371 23.2464L62.5681 31.7774C62.7634 31.9727 62.7634 32.2893 62.5681 32.4845C62.3729 32.6798 62.0563 32.6798 61.861 32.4845L53.33 23.9535C53.1348 23.7583 53.1348 23.4417 53.33 23.2464Z" />
      <path fill-rule="evenodd" clip-rule="evenodd" d="M40.989 47.7239C43.2651 46.5709 45.7982 46.0191 48.3477 46.1208C50.8971 46.2225 53.3783 46.9744 55.5553 48.3051C57.7323 49.6358 59.5329 51.501 60.786 53.7236C62.0391 55.9461 62.7031 58.4522 62.7149 61.0036C62.7156 61.1366 62.6632 61.2644 62.5693 61.3587C62.4755 61.4529 62.348 61.5059 62.215 61.5059H43.84C43.5638 61.5059 43.34 61.2821 43.34 61.0059C43.34 60.7298 43.5638 60.5059 43.84 60.5059H61.7036C61.6139 58.2992 61.0019 56.1427 59.9149 54.2147C58.7455 52.1407 57.0653 50.4001 55.0337 49.1583C53.0022 47.9166 50.6869 47.2149 48.3078 47.12C45.9287 47.0251 43.5649 47.54 41.4409 48.616C41.1946 48.7408 40.8937 48.6422 40.7689 48.3959C40.6441 48.1495 40.7427 47.8487 40.989 47.7239Z" />
      <path fill-rule="evenodd" clip-rule="evenodd" d="M39.4315 31.6426C39.7012 31.7019 39.8717 31.9687 39.8124 32.2384C39.5769 33.3091 39.5632 34.4168 39.7721 35.4931C39.9809 36.5693 40.4079 37.5915 41.0268 38.4965C41.6456 39.4015 42.4432 40.1702 43.3704 40.7552C44.2976 41.3403 45.3348 41.7293 46.4181 41.8983C47.5013 42.0672 48.6077 42.0127 49.6691 41.7378C50.7304 41.463 51.7243 40.9738 52.5894 40.3003C53.4545 39.6268 54.1725 38.7834 54.6993 37.8218C55.2261 36.8603 55.5504 35.8011 55.6523 34.7095C55.6779 34.4346 55.9216 34.2325 56.1966 34.2581C56.4715 34.2838 56.6736 34.5275 56.6479 34.8024C56.5334 36.03 56.1687 37.221 55.5763 38.3023C54.984 39.3835 54.1765 40.3321 53.2037 41.0894C52.2308 41.8467 51.1132 42.3969 49.9197 42.7059C48.7262 43.015 47.4821 43.0763 46.2639 42.8863C45.0458 42.6963 43.8795 42.2588 42.8368 41.6009C41.7941 40.943 40.8972 40.0786 40.2013 39.0609C39.5054 38.0432 39.0252 36.8938 38.7904 35.6835C38.5555 34.4732 38.571 33.2277 38.8358 32.0236C38.8951 31.7539 39.1618 31.5833 39.4315 31.6426Z" />
    </svg>
  