
    <svg viewBox="0 0 64 64" xmlns="http://www.w3.org/2000/svg">
      <path fill-rule="evenodd" clip-rule="evenodd" d="M29.0926 39.9101C30.014 39.5252 31.0026 39.327 32.0011 39.327C32.9996 39.327 33.9882 39.5252 34.9096 39.9101C35.8309 40.2949 36.6668 40.8588 37.3686 41.5691C38.0704 42.2793 38.6243 43.1218 38.9982 44.0477C39.3713 44.9718 39.5577 45.9605 39.5466 46.957C39.5577 47.9534 39.3713 48.9422 38.9982 49.8662C38.6243 50.7921 38.0704 51.6346 37.3686 52.3449C36.6668 53.0551 35.8309 53.619 34.9096 54.0039C33.9882 54.3887 32.9996 54.5869 32.0011 54.5869C31.0026 54.5869 30.014 54.3887 29.0926 54.0039C28.1712 53.619 27.3354 53.0551 26.6336 52.3449C25.9317 51.6346 25.3778 50.7921 25.004 49.8662C24.6308 48.9422 24.4445 47.9534 24.4555 46.957C24.4445 45.9605 24.6308 44.9718 25.004 44.0477C25.3778 43.1218 25.9317 42.2793 26.6336 41.5691C27.3354 40.8588 28.1712 40.2949 29.0926 39.9101ZM32.0011 40.327C31.1349 40.327 30.2773 40.4989 29.478 40.8328C28.6788 41.1667 27.9537 41.6558 27.3449 42.272C26.736 42.8881 26.2555 43.6189 25.9312 44.4221C25.6069 45.2253 25.4452 46.0849 25.4555 46.951L25.4557 46.9629L25.4555 46.9629C25.4452 47.8291 25.6069 48.6886 25.9312 49.4918C26.2555 50.295 26.736 51.0258 27.3449 51.642C27.9537 52.2581 28.6788 52.7473 29.478 53.0811C30.2773 53.415 31.1349 53.5869 32.0011 53.5869C32.8673 53.5869 33.7249 53.415 34.5241 53.0811C35.3234 52.7473 36.0485 52.2581 36.6573 51.642C37.2661 51.0258 37.7466 50.295 38.0709 49.4918C38.3953 48.6886 38.5569 47.8291 38.5466 46.9629L38.5465 46.951L38.5466 46.951C38.5569 46.0849 38.3953 45.2253 38.0709 44.4221C37.7466 43.6189 37.2661 42.8881 36.6573 42.272C36.0485 41.6558 35.3234 41.1667 34.5241 40.8328C33.7249 40.4989 32.8673 40.327 32.0011 40.327Z" />
      <path fill-rule="evenodd" clip-rule="evenodd" d="M25.874 57.2142C27.7248 56.1041 29.8425 55.5177 32.0007 55.5177C34.1589 55.5177 36.2766 56.1041 38.1274 57.2142C39.9782 58.3244 41.4926 59.9165 42.5088 61.8205C42.6388 62.0641 42.5467 62.367 42.3031 62.4971C42.0595 62.6271 41.7566 62.535 41.6266 62.2914C40.6957 60.5472 39.3085 59.0887 37.613 58.0718C35.9176 57.0549 33.9777 56.5177 32.0007 56.5177C30.0237 56.5177 28.0838 57.0549 26.3884 58.0718C24.6929 59.0887 23.3057 60.5472 22.3748 62.2914C22.2448 62.535 21.9419 62.6271 21.6983 62.4971C21.4547 62.367 21.3626 62.0641 21.4926 61.8205C22.5088 59.9165 24.0232 58.3244 25.874 57.2142Z" />
      <path fill-rule="evenodd" clip-rule="evenodd" d="M49.5399 39.9101C50.4612 39.5252 51.4498 39.327 52.4483 39.327C53.4469 39.327 54.4355 39.5252 55.3568 39.9101C56.2782 40.2949 57.114 40.8588 57.8159 41.5691C58.5177 42.2793 59.0716 43.1218 59.4455 44.0477C59.8186 44.9718 60.005 45.9605 59.9939 46.957C60.005 47.9534 59.8186 48.9422 59.4455 49.8662C59.0716 50.7921 58.5177 51.6346 57.8159 52.3449C57.114 53.0551 56.2782 53.619 55.3568 54.0039C54.4355 54.3887 53.4469 54.5869 52.4483 54.5869C51.4498 54.5869 50.4612 54.3887 49.5399 54.0039C48.6185 53.619 47.7827 53.0551 47.0808 52.3449C46.379 51.6346 45.8251 50.7921 45.4512 49.8662C45.0781 48.9422 44.8917 47.9534 44.9028 46.957C44.8917 45.9605 45.0781 44.9718 45.4512 44.0477C45.8251 43.1218 46.379 42.2793 47.0808 41.5691C47.7827 40.8588 48.6185 40.2949 49.5399 39.9101ZM52.4483 40.327C51.5821 40.327 50.7246 40.4989 49.9253 40.8328C49.126 41.1667 48.401 41.6558 47.7921 42.272C47.1833 42.8881 46.7028 43.6189 46.3785 44.4221C46.0542 45.2253 45.8925 46.0849 45.9028 46.951L45.903 46.9629L45.9028 46.9629C45.8925 47.8291 46.0542 48.6886 46.3785 49.4918C46.7028 50.295 47.1833 51.0258 47.7921 51.642C48.401 52.2581 49.126 52.7473 49.9253 53.0811C50.7246 53.415 51.5822 53.5869 52.4483 53.5869C53.3145 53.5869 54.1721 53.415 54.9714 53.0811C55.7707 52.7473 56.4957 52.2581 57.1046 51.642C57.7134 51.0258 58.1939 50.295 58.5182 49.4918C58.8425 48.6886 59.0042 47.8291 58.9939 46.9629L58.9937 46.951L58.9939 46.951C59.0042 46.0849 58.8425 45.2253 58.5182 44.4221C58.1939 43.6189 57.7134 42.8881 57.1046 42.272C56.4957 41.6558 55.7707 41.1667 54.9714 40.8328C54.1721 40.4989 53.3145 40.327 52.4483 40.327Z" />
      <path fill-rule="evenodd" clip-rule="evenodd" d="M51.8276 55.5327C53.9179 55.4288 56.0006 55.854 57.8828 56.769C59.7651 57.684 61.386 59.0591 62.5955 60.7671C62.7551 60.9924 62.7018 61.3045 62.4765 61.4641C62.2511 61.6237 61.939 61.5704 61.7794 61.345C60.6672 59.7744 59.1766 58.5098 57.4456 57.6684C55.7147 56.827 53.7995 56.4359 51.8773 56.5314C49.9551 56.627 48.088 57.206 46.4491 58.2149C44.8101 59.2238 43.4522 60.6299 42.5012 62.3031C42.3647 62.5432 42.0595 62.6272 41.8194 62.4907C41.5793 62.3543 41.4953 62.049 41.6318 61.809C42.666 59.9895 44.1426 58.4604 45.9249 57.3633C47.7071 56.2662 49.7374 55.6366 51.8276 55.5327Z" />
      <path fill-rule="evenodd" clip-rule="evenodd" d="M8.64338 39.9101C9.56475 39.5252 10.5533 39.327 11.5519 39.327C12.5504 39.327 13.539 39.5252 14.4603 39.9101C15.3817 40.2949 16.2175 40.8588 16.9194 41.5691C17.6212 42.2793 18.1751 43.1218 18.549 44.0477C18.9221 44.9718 19.1085 45.9605 19.0974 46.957C19.1085 47.9534 18.9221 48.9422 18.549 49.8662C18.1751 50.7921 17.6212 51.6346 16.9194 52.3449C16.2175 53.0551 15.3817 53.619 14.4603 54.0039C13.539 54.3887 12.5504 54.5869 11.5519 54.5869C10.5533 54.5869 9.56475 54.3887 8.64338 54.0039C7.72201 53.619 6.88618 53.0551 6.18434 52.3449C5.4825 51.6346 4.9286 50.7921 4.55474 49.8662C4.18163 48.9422 3.99524 47.9534 4.00633 46.957C3.99524 45.9605 4.18163 44.9718 4.55474 44.0477C4.9286 43.1218 5.4825 42.2793 6.18434 41.5691C6.88618 40.8588 7.72201 40.2949 8.64338 39.9101ZM11.5519 40.327C10.6857 40.327 9.82808 40.4989 9.02881 40.8328C8.22954 41.1667 7.50448 41.6558 6.89565 42.272C6.28682 42.8881 5.80632 43.6189 5.482 44.4221C5.15769 45.2253 4.996 46.0849 5.00632 46.951L5.00647 46.9629L5.00632 46.9629C4.996 47.8291 5.15769 48.6886 5.482 49.4918C5.80632 50.295 6.28682 51.0258 6.89565 51.642C7.50448 52.2581 8.22954 52.7473 9.02881 53.0811C9.82808 53.415 10.6857 53.5869 11.5519 53.5869C12.4181 53.5869 13.2756 53.415 14.0749 53.0811C14.8742 52.7473 15.5992 52.2581 16.2081 51.642C16.8169 51.0258 17.2974 50.295 17.6217 49.4918C17.946 48.6886 18.1077 47.8291 18.0974 46.9629L18.0973 46.951L18.0974 46.951C18.1077 46.0849 17.946 45.2253 17.6217 44.4221C17.2974 43.6189 16.8169 42.8881 16.2081 42.272C15.5992 41.6558 14.8742 41.1667 14.0749 40.8328C13.2756 40.4989 12.4181 40.327 11.5519 40.327Z" />
      <path fill-rule="evenodd" clip-rule="evenodd" d="M12.1228 56.5314C10.2005 56.4359 8.2853 56.827 6.55438 57.6684C4.82347 58.5098 3.33286 59.7744 2.22058 61.345C2.06099 61.5704 1.74893 61.6237 1.52358 61.4641C1.29822 61.3045 1.24491 60.9924 1.4045 60.7671C2.61401 59.0591 4.23495 57.684 6.11719 56.769C7.99943 55.854 10.0821 55.4288 12.1724 55.5327C14.2627 55.6366 16.2929 56.2662 18.0752 57.3633C19.8574 58.4604 21.334 59.9895 22.3682 61.809C22.5047 62.049 22.4207 62.3543 22.1806 62.4907C21.9406 62.6272 21.6353 62.5432 21.4989 62.3031C20.5478 60.6299 19.1899 59.2238 17.551 58.2149C15.912 57.206 14.045 56.627 12.1228 56.5314Z" />
      <path fill-rule="evenodd" clip-rule="evenodd" d="M55.5223 14.8126C55.5223 14.8126 55.5223 14.8126 55.5222 14.8126L41.9794 28.3555L40.815 34.1818L46.6433 33.0174L60.1862 19.4745L60.1864 19.4743C60.4914 19.1697 60.7336 18.8067 60.8988 18.4078C61.0639 18.0093 61.1488 17.5821 61.1485 17.1507C61.1483 16.7193 61.0629 16.2922 60.8974 15.8938C60.7319 15.4955 60.4894 15.1337 60.1838 14.8292L60.1832 14.8286L60.1672 14.8126C60.1672 14.8126 60.1672 14.8126 60.1672 14.8126C59.5511 14.1968 58.7158 13.8508 57.8447 13.8508C56.9737 13.8508 56.1383 14.1968 55.5223 14.8126ZM54.8152 14.1054C55.6188 13.3021 56.7085 12.8508 57.8447 12.8508C58.981 12.8508 60.0707 13.3021 60.8742 14.1054L60.8743 14.1055L60.8897 14.1209C61.2884 14.5182 61.6048 14.9903 61.8208 15.5101C62.0369 16.0299 62.1482 16.5872 62.1485 17.1501C62.1488 17.713 62.0381 18.2705 61.8227 18.7905C61.6074 19.3101 61.2917 19.7836 60.8933 20.1816C60.8932 20.1817 60.8932 20.1817 60.8931 20.1818L47.2433 33.8316C47.1735 33.9014 47.0845 33.949 46.9877 33.9683L40.2757 35.3093C40.1118 35.3421 39.9424 35.2908 39.8242 35.1726C39.706 35.0544 39.6547 34.8849 39.6874 34.721L41.0284 28.011C41.0478 27.9142 41.0954 27.8253 41.1652 27.7555L54.8152 14.1055L54.8152 14.1054Z" />
      <path fill-rule="evenodd" clip-rule="evenodd" d="M10.1484 1.94397C10.1484 1.66783 10.3723 1.44397 10.6484 1.44397H42.8604C42.9815 1.44397 43.0985 1.48791 43.1896 1.56763L49.9356 7.46863C50.1435 7.65044 50.1646 7.96632 49.9828 8.17417C49.801 8.38201 49.4851 8.40312 49.2772 8.22131L42.6726 2.44397H11.1484V32.142C11.1484 32.4181 10.9246 32.642 10.6484 32.642C10.3723 32.642 10.1484 32.4181 10.1484 32.142V1.94397Z" />
      <path fill-rule="evenodd" clip-rule="evenodd" d="M27.1057 12.9985C27.301 13.1938 27.301 13.5103 27.1057 13.7056L21.7377 19.0736C21.6439 19.1674 21.5167 19.2201 21.3841 19.22C21.2514 19.22 21.1242 19.1673 21.0305 19.0735L18.3475 16.3885C18.1523 16.1931 18.1524 15.8766 18.3478 15.6814C18.5431 15.4862 18.8597 15.4863 19.0549 15.6816L21.3843 18.0128L26.3986 12.9985C26.5939 12.8032 26.9105 12.8032 27.1057 12.9985Z" />
      <path fill-rule="evenodd" clip-rule="evenodd" d="M27.1056 26.4164C27.3009 26.6116 27.301 26.9282 27.1058 27.1235L21.7378 32.4945C21.644 32.5883 21.5168 32.641 21.3841 32.641C21.2515 32.641 21.1243 32.5883 21.0305 32.4944L18.3475 29.8094C18.1523 29.6141 18.1524 29.2975 18.3478 29.1023C18.5431 28.9071 18.8597 28.9073 19.0549 29.1026L21.3842 31.4337L26.3985 26.4166C26.5937 26.2212 26.9103 26.2212 27.1056 26.4164Z" />
      <path fill-rule="evenodd" clip-rule="evenodd" d="M32.9648 17.376C32.9648 17.0998 33.1887 16.876 33.4648 16.876H37.4918C37.768 16.876 37.9918 17.0998 37.9918 17.376C37.9918 17.6521 37.768 17.876 37.4918 17.876H33.4648C33.1887 17.876 32.9648 17.6521 32.9648 17.376Z" />
      <path fill-rule="evenodd" clip-rule="evenodd" d="M42.5059 26.4173C42.7012 26.2221 43.0178 26.2222 43.213 26.4175L48.581 31.7885C48.7762 31.9839 48.7761 32.3004 48.5808 32.4956C48.3855 32.6909 48.0689 32.6908 47.8737 32.4955L42.5057 27.1245C42.3105 26.9291 42.3106 26.6126 42.5059 26.4173Z" />
      <path fill-rule="evenodd" clip-rule="evenodd" d="M5.74708 42.1474C5.94183 41.9516 6.25841 41.9508 6.45419 42.1455C8.028 43.7111 9.928 44.9099 12.0186 45.6565C14.1092 46.403 16.3388 46.6789 18.5482 46.4643C18.8231 46.4377 19.0675 46.6388 19.0942 46.9137C19.1209 47.1885 18.9197 47.433 18.6449 47.4597C16.2889 47.6884 13.9115 47.3943 11.6823 46.5982C9.45308 45.8022 7.4271 44.5238 5.74894 42.8545C5.55316 42.6597 5.55233 42.3432 5.74708 42.1474Z" />
      <path fill-rule="evenodd" clip-rule="evenodd" d="M26.1963 42.1474C26.391 41.9516 26.7076 41.9508 26.9034 42.1455C28.4773 43.7109 30.3773 44.9096 32.4679 45.6562C34.5585 46.4027 36.788 46.6787 38.9975 46.4643C39.2724 46.4377 39.5168 46.6389 39.5434 46.9137C39.5701 47.1886 39.3689 47.433 39.0941 47.4597C36.7381 47.6882 34.3607 47.394 32.1316 46.5979C29.9025 45.8019 27.8765 44.5237 26.1982 42.8545C26.0024 42.6598 26.0015 42.3432 26.1963 42.1474Z" />
      <path fill-rule="evenodd" clip-rule="evenodd" d="M46.6435 42.1474C46.8382 41.9516 47.1548 41.9508 47.3506 42.1455C48.925 43.7112 50.8255 44.9101 52.9166 45.6566C55.0077 46.4032 57.2378 46.679 59.4477 46.4643C59.7226 46.4376 59.967 46.6388 59.9937 46.9137C60.0204 47.1885 59.8192 47.433 59.5444 47.4597C57.1879 47.6885 54.81 47.3944 52.5804 46.5984C50.3507 45.8024 48.3242 44.524 46.6455 42.8545C46.4497 42.6598 46.4488 42.3432 46.6435 42.1474Z" />
    </svg>
  