
    <svg viewBox="0 0 64 64" xmlns="http://www.w3.org/2000/svg">
      <path fill-rule="evenodd" clip-rule="evenodd" d="M25.1145 2.66837C21.386 1.95411 17.5294 2.36191 14.0327 3.84019C10.536 5.31847 7.55639 7.80077 5.47092 10.973C3.38544 14.1452 2.28783 17.8648 2.31697 21.661C2.34611 25.4572 3.5007 29.1595 5.63463 32.2993C7.76856 35.4391 10.7859 37.8754 14.3049 39.2998C17.8239 40.7242 21.6863 41.0728 25.4034 40.3014C25.6738 40.2453 25.9385 40.419 25.9946 40.6893C26.0507 40.9597 25.877 41.2244 25.6066 41.2805C21.6958 42.0921 17.6321 41.7254 13.9297 40.2268C10.2273 38.7281 7.0527 36.1649 4.80756 32.8614C2.56242 29.5579 1.34766 25.6627 1.317 21.6687C1.28634 17.6746 2.44116 13.7612 4.63532 10.4236C6.82948 7.08611 9.96437 4.47444 13.6433 2.91912C17.3222 1.3638 21.3798 0.93474 25.3027 1.68623C29.2255 2.43772 32.8373 4.33598 35.681 7.14081C38.5247 9.94564 40.4724 13.531 41.2778 17.4431C41.3335 17.7136 41.1593 17.978 40.8889 18.0337C40.6184 18.0894 40.354 17.9152 40.2983 17.6448C39.5328 13.9264 37.6816 10.5187 34.9788 7.85276C32.276 5.18687 28.8431 3.38263 25.1145 2.66837Z" />
      <path fill-rule="evenodd" clip-rule="evenodd" d="M1.70898 17.563C1.70898 17.2868 1.93284 17.063 2.20898 17.063H11.574C12.2706 17.0631 12.9472 17.2959 13.4963 17.7244C14.0455 18.153 14.4357 18.7528 14.605 19.4285L15.918 24.6785C15.918 24.6785 15.918 24.6784 15.918 24.6785C16.0334 25.1392 16.0423 25.6203 15.944 26.085C15.8456 26.5497 15.6427 26.9859 15.3505 27.3604C15.0582 27.7349 14.6845 28.0378 14.2577 28.2462C13.8308 28.4546 13.362 28.5629 12.887 28.563H11.4099L9.72628 36.983C9.67213 37.2538 9.40873 37.4294 9.13795 37.3753C8.86717 37.3211 8.69155 37.0577 8.74569 36.787L10.5097 27.965C10.5564 27.7312 10.7616 27.563 11 27.563H12.8869C12.8869 27.563 12.8869 27.563 12.8869 27.563C13.2099 27.5629 13.5287 27.4893 13.8189 27.3476C14.1092 27.2059 14.3633 26.9999 14.5621 26.7452C14.7608 26.4905 14.8988 26.1939 14.9657 25.8779C15.0325 25.5619 15.0265 25.2348 14.948 24.9215L13.635 19.6715C13.635 19.6714 13.635 19.6716 13.635 19.6715C13.5198 19.2121 13.2545 18.8042 12.8811 18.5128C12.5077 18.2214 12.0476 18.0631 11.574 18.063C11.574 18.063 11.574 18.063 11.574 18.063H2.20898C1.93284 18.063 1.70898 17.8391 1.70898 17.563Z" />
      <path fill-rule="evenodd" clip-rule="evenodd" d="M28.1911 9.84944C28.7403 9.42087 29.4169 9.18806 30.1134 9.18799H37.2245C37.5006 9.18799 37.7245 9.41185 37.7245 9.68799C37.7245 9.96413 37.5006 10.188 37.2245 10.188H30.1135C30.1135 10.188 30.1136 10.188 30.1135 10.188C29.6399 10.1881 29.1798 10.3464 28.8064 10.6378C28.433 10.9292 28.1676 11.337 28.0525 11.7965L26.7396 17.0463C26.661 17.3596 26.6549 17.6869 26.7218 18.0029C26.7887 18.3189 26.9267 18.6155 27.1254 18.8702C27.3241 19.1249 27.5783 19.3309 27.8685 19.4726C28.1588 19.6143 28.4775 19.6879 28.8005 19.688C28.8005 19.688 28.8005 19.688 28.8005 19.688H29.3755C29.6516 19.688 29.8755 19.9118 29.8755 20.188C29.8755 20.4641 29.6516 20.688 29.3755 20.688H28.8005C28.3255 20.6879 27.8567 20.5796 27.4298 20.3712C27.003 20.1628 26.6292 19.8599 26.337 19.4854C26.0448 19.1109 25.8418 18.6747 25.7435 18.21C25.6452 17.7453 25.654 17.2644 25.7694 16.8037C25.7695 16.8036 25.7694 16.8037 25.7694 16.8037L27.0824 11.5537C27.2517 10.878 27.642 10.278 28.1911 9.84944Z" />
      <path fill-rule="evenodd" clip-rule="evenodd" d="M31.1875 28.0638V56.938C31.1875 58.163 31.4923 59.0485 31.9238 59.6958C32.3574 60.3462 32.9392 60.7861 33.5361 61.0845C34.135 61.384 34.7399 61.5362 35.1994 61.6128C35.4279 61.6508 35.6173 61.6697 35.7475 61.679C35.8126 61.6837 35.8626 61.6859 35.8952 61.687C35.9115 61.6875 35.9233 61.6878 35.9305 61.6879L35.9375 61.688H56.9375C58.1625 61.688 59.048 61.3832 59.6953 60.9517C60.3457 60.518 60.7856 59.9363 61.084 59.3394C61.3835 58.7405 61.5357 58.1355 61.6123 57.6761C61.6504 57.4476 61.6692 57.2582 61.6785 57.128C61.6832 57.0629 61.6854 57.0128 61.6865 56.9803C61.687 56.964 61.6873 56.9521 61.6874 56.945L61.6875 56.9378L61.6875 28.063C61.6875 26.838 61.3827 25.9525 60.9512 25.3052C60.5176 24.6548 59.9358 24.2149 59.3389 23.9165C58.74 23.617 58.1351 23.4648 57.6756 23.3882C57.4471 23.3501 57.2577 23.3313 57.1275 23.322C57.0624 23.3173 57.0124 23.3151 56.9798 23.314C56.9635 23.3135 56.9517 23.3132 56.9445 23.3131L56.9373 23.313C56.9375 23.313 56.9375 23.313 56.9375 22.813L56.9373 23.313L35.9375 23.313C34.7125 23.313 33.827 23.6178 33.1797 24.0493C32.5293 24.4829 32.0894 25.0647 31.791 25.6616C31.4915 26.2605 31.3393 26.8654 31.2627 27.3249C31.2246 27.5534 31.2058 27.7428 31.1965 27.873C31.1918 27.9381 31.1896 27.9881 31.1885 28.0207C31.188 28.037 31.1877 28.0488 31.1876 28.056L31.1875 28.0638C31.1875 28.064 31.1875 28.0636 31.1875 28.0638ZM56.9375 22.813V22.313H35.9375C34.5375 22.313 33.4543 22.6644 32.625 23.2173C31.7988 23.768 31.2543 24.4988 30.8965 25.2144C30.5397 25.928 30.3638 26.6355 30.2763 27.1605C30.2324 27.4241 30.2102 27.6449 30.199 27.8018C30.1934 27.8803 30.1905 27.943 30.1891 27.9874C30.1883 28.0096 30.1879 28.0272 30.1877 28.0399L30.1875 28.0552L30.1875 28.0601L30.1875 28.0618C30.1875 28.0621 30.1875 28.063 30.6875 28.063H30.1875V56.938C30.1875 58.338 30.5389 59.4212 31.0918 60.2505C31.6426 61.0766 32.3733 61.6212 33.0889 61.979C33.8025 62.3358 34.5101 62.5117 35.035 62.5992C35.2986 62.6431 35.5194 62.6653 35.6763 62.6765C35.7548 62.6821 35.8175 62.685 35.8619 62.6864C35.8841 62.6872 35.9017 62.6876 35.9144 62.6878L35.9297 62.688L35.9346 62.688L35.9363 62.688C35.9366 62.688 35.9375 62.688 35.9375 62.188V62.688H56.9375C58.3375 62.688 59.4207 62.3366 60.25 61.7837C61.0762 61.2329 61.6207 60.5022 61.9785 59.7866C62.3353 59.073 62.5112 58.3654 62.5987 57.8405C62.6426 57.5768 62.6648 57.356 62.676 57.1992C62.6816 57.1207 62.6845 57.058 62.6859 57.0136C62.6867 56.9914 62.6871 56.9738 62.6873 56.9611L62.6875 56.9458L62.6875 56.9409L62.6875 56.9392C62.6875 56.9389 62.6875 56.938 62.1875 56.938H62.6875V28.063C62.6875 26.663 62.3361 25.5798 61.7832 24.7505C61.2324 23.9243 60.5017 23.3798 59.7861 23.022C59.0725 22.6652 58.3649 22.4893 57.84 22.4018C57.5764 22.3579 57.3556 22.3357 57.1987 22.3245C57.1202 22.3189 57.0575 22.316 57.0131 22.3145C56.9909 22.3138 56.9733 22.3134 56.9606 22.3132L56.9453 22.313L56.9404 22.313L56.9387 22.313C56.9384 22.313 56.9375 22.313 56.9375 22.813Z" />
      <path fill-rule="evenodd" clip-rule="evenodd" d="M42.228 31.0253C43.5626 30.4725 44.993 30.188 46.4375 30.188C47.882 30.188 49.3124 30.4725 50.647 31.0253C51.9816 31.5781 53.1942 32.3884 54.2157 33.4098C55.2371 34.4313 56.0474 35.6439 56.6002 36.9785C57.153 38.3131 57.4375 39.7434 57.4375 41.188C57.4375 42.6325 57.153 44.0629 56.6002 45.3975C56.0474 46.7321 55.2371 47.9447 54.2157 48.9662C53.1942 49.9876 51.9816 50.7979 50.647 51.3507C49.3124 51.9035 47.882 52.188 46.4375 52.188C44.993 52.188 43.5626 51.9035 42.228 51.3507C40.8934 50.7979 39.6808 49.9876 38.6593 48.9662C37.6379 47.9447 36.8276 46.7321 36.2748 45.3975C35.722 44.0629 35.4375 42.6325 35.4375 41.188C35.4375 39.7434 35.722 38.3131 36.2748 36.9785C36.8276 35.6439 37.6379 34.4313 38.6593 33.4098C39.6808 32.3884 40.8934 31.5781 42.228 31.0253ZM46.4375 31.188C45.1243 31.188 43.8239 31.4466 42.6107 31.9492C41.3974 32.4517 40.295 33.1883 39.3664 34.1169C38.4378 35.0455 37.7013 36.1479 37.1987 37.3612C36.6962 38.5744 36.4375 39.8748 36.4375 41.188C36.4375 42.5012 36.6962 43.8016 37.1987 45.0148C37.7013 46.2281 38.4378 47.3305 39.3664 48.2591C40.295 49.1876 41.3974 49.9242 42.6107 50.4268C43.8239 50.9293 45.1243 51.188 46.4375 51.188C47.7507 51.188 49.0511 50.9293 50.2643 50.4268C51.4776 49.9242 52.58 49.1876 53.5086 48.2591C54.4372 47.3305 55.1737 46.2281 55.6763 45.0148C56.1788 43.8016 56.4375 42.5012 56.4375 41.188C56.4375 39.8748 56.1788 38.5744 55.6763 37.3612C55.1737 36.1479 54.4372 35.0455 53.5086 34.1169C52.58 33.1883 51.4776 32.4517 50.2643 31.9492C49.0511 31.4466 47.7507 31.188 46.4375 31.188Z" />
      <path fill-rule="evenodd" clip-rule="evenodd" d="M44.544 31.0025C45.083 30.4004 45.7253 30.0206 46.438 30.0206C47.1507 30.0206 47.793 30.4004 48.332 31.0025C48.8706 31.604 49.3347 32.4554 49.7138 33.4823C50.0944 34.5135 50.3904 35.725 50.5884 37.0444C50.7865 38.3639 50.8838 39.772 50.8755 41.1879C50.8838 42.6039 50.7865 44.012 50.5884 45.3314C50.3904 46.6508 50.0944 47.8624 49.7138 48.8936C49.3347 49.9205 48.8706 50.7719 48.332 51.3734C47.793 51.9755 47.1507 52.3553 46.438 52.3553C45.7253 52.3553 45.083 51.9755 44.544 51.3734C44.0054 50.7719 43.5413 49.9205 43.1622 48.8936C42.7816 47.8624 42.4856 46.6508 42.2876 45.3314C42.0895 44.012 41.9922 42.6039 42.0005 41.1879C41.9922 39.772 42.0895 38.3639 42.2876 37.0444C42.4856 35.725 42.7816 34.5135 43.1622 33.4823C43.5413 32.4554 44.0054 31.604 44.544 31.0025ZM46.438 31.0206C46.1059 31.0206 45.7137 31.1952 45.289 31.6695C44.8639 32.1443 44.4543 32.8698 44.1004 33.8285C43.7481 34.7829 43.4667 35.9259 43.2765 37.1929C43.0864 38.459 42.9923 39.8164 43.0005 41.185L43.0005 41.1909H43.0005C42.9923 42.5595 43.0864 43.9169 43.2765 45.183C43.4667 46.45 43.7481 47.593 44.1004 48.5473C44.4543 49.5061 44.8639 50.2316 45.289 50.7064C45.7137 51.1807 46.1059 51.3553 46.438 51.3553C46.7701 51.3553 47.1623 51.1807 47.587 50.7064C48.0121 50.2316 48.4217 49.5061 48.7756 48.5473C49.1279 47.593 49.4093 46.45 49.5995 45.183C49.7896 43.9169 49.8837 42.5595 49.8755 41.1909L49.8755 41.185H49.8755C49.8837 39.8164 49.7896 38.459 49.5995 37.1929C49.4093 35.9259 49.1279 34.7829 48.7756 33.8285C48.4217 32.8698 48.0121 32.1443 47.587 31.6695C47.1623 31.1952 46.7701 31.0206 46.438 31.0206Z" />
      <path fill-rule="evenodd" clip-rule="evenodd" d="M35.4375 41.188C35.4375 40.9118 35.6614 40.688 35.9375 40.688H56.9375C57.2136 40.688 57.4375 40.9118 57.4375 41.188C57.4375 41.4641 57.2136 41.688 56.9375 41.688H35.9375C35.6614 41.688 35.4375 41.4641 35.4375 41.188Z" />
    </svg>
  