
    <svg viewBox="0 0 64 64" xmlns="http://www.w3.org/2000/svg">
      <path fill-rule="evenodd" clip-rule="evenodd" d="M45.1372 40.8252C45.6555 40.6105 46.211 40.5 46.772 40.5C47.333 40.5 47.8885 40.6105 48.4068 40.8252C48.9251 41.0399 49.3961 41.3545 49.7928 41.7512C50.1895 42.1479 50.5041 42.6189 50.7188 43.1372C50.9335 43.6555 51.044 44.211 51.044 44.772C51.044 45.333 50.9335 45.8885 50.7188 46.4068C50.5041 46.9251 50.1895 47.3961 49.7928 47.7928C49.3961 48.1894 48.9251 48.5041 48.4068 48.7188C47.8885 48.9335 47.333 49.044 46.772 49.044C46.211 49.044 45.6555 48.9335 45.1372 48.7188C44.6189 48.5041 44.1479 48.1894 43.7512 47.7928C43.3545 47.3961 43.0399 46.9251 42.8252 46.4068C42.6105 45.8885 42.5 45.333 42.5 44.772C42.5 44.211 42.6105 43.6555 42.8252 43.1372C43.0399 42.6189 43.3545 42.1479 43.7512 41.7512C44.1479 41.3545 44.6189 41.0399 45.1372 40.8252ZM46.772 41.5C46.3423 41.5 45.9168 41.5846 45.5199 41.7491C45.1229 41.9135 44.7622 42.1545 44.4583 42.4583C44.1545 42.7622 43.9135 43.1229 43.7491 43.5199C43.5846 43.9168 43.5 44.3423 43.5 44.772C43.5 45.2017 43.5846 45.6272 43.7491 46.0241C43.9135 46.4211 44.1545 46.7818 44.4583 47.0857C44.7622 47.3895 45.1229 47.6305 45.5199 47.7949C45.9168 47.9594 46.3423 48.044 46.772 48.044C47.2017 48.044 47.6272 47.9594 48.0241 47.7949C48.4211 47.6305 48.7818 47.3895 49.0857 47.0857C49.3895 46.7818 49.6305 46.4211 49.7949 46.0241C49.9594 45.6272 50.044 45.2017 50.044 44.772C50.044 44.3423 49.9594 43.9168 49.7949 43.5199C49.6305 43.1229 49.3895 42.7622 49.0857 42.4583C48.7818 42.1545 48.4211 41.9135 48.0241 41.7491C47.6272 41.5846 47.2017 41.5 46.772 41.5Z" />
      <path fill-rule="evenodd" clip-rule="evenodd" d="M50.3693 32.3899L49.9565 31.0912C49.0702 28.3029 45.1247 28.3029 44.2384 31.0912L43.8256 32.3899C43.043 34.8521 40.5134 36.3125 37.9897 35.7592L36.6587 35.4674C33.8008 34.8408 31.828 38.2577 33.7996 40.4194L34.7179 41.4262C36.4589 43.3351 36.4589 46.256 34.7179 48.1649L33.7996 49.1718C31.828 51.3335 33.8008 54.7503 36.6587 54.1238L37.9897 53.8319C40.5134 53.2786 43.043 54.7391 43.8256 57.2013L44.2384 58.4999C45.1247 61.2882 49.0702 61.2882 49.9565 58.4999L50.3693 57.2013C51.1519 54.7391 53.6815 53.2786 56.2052 53.8319L57.5363 54.1238C60.3941 54.7503 62.3669 51.3335 60.3953 49.1718L59.477 48.1649C57.736 46.256 57.736 43.3351 59.477 41.4262L60.3953 40.4194C62.3669 38.2577 60.3941 34.8408 57.5363 35.4674L56.2052 35.7592C53.6816 36.3125 51.152 34.8521 50.3693 32.3899ZM50.9095 30.7883C49.7278 27.0706 44.4671 27.0706 43.2854 30.7883L42.8726 32.087C42.2465 34.0567 40.2228 35.2251 38.2039 34.7824L36.8728 34.4906C33.0623 33.6551 30.432 38.211 33.0608 41.0933L33.9791 42.1001C35.3719 43.6272 35.3719 45.9639 33.9791 47.4911L33.0608 48.4979C30.432 51.3802 33.0623 55.936 36.8728 55.1006L38.2039 54.8087C40.2228 54.3661 42.2465 55.5344 42.8726 57.5042L43.2854 58.8029C44.4671 62.5206 49.7278 62.5206 50.9095 58.8029L51.3223 57.5042C51.9484 55.5344 53.9721 54.3661 55.991 54.8087L57.3221 55.1006C61.1326 55.936 63.7629 51.3802 61.1342 48.4979L60.2159 47.4911C58.8231 45.964 58.8231 43.6272 60.2159 42.1001L61.1342 41.0933C63.7629 38.211 61.1326 33.6551 57.3221 34.4906L55.991 34.7824C53.9721 35.2251 51.9484 34.0567 51.3223 32.087L50.9095 30.7883Z" />
      <path fill-rule="evenodd" clip-rule="evenodd" d="M5.7495 1.31299H52.9995C54.1763 1.31299 55.305 1.78041 56.1372 2.61245C56.9695 3.44449 57.4372 4.57303 57.4375 5.74986V25.438C57.4375 25.7141 57.2136 25.938 56.9375 25.938C56.6614 25.938 56.4375 25.7141 56.4375 25.438V5.75012C56.4375 5.75007 56.4375 5.75016 56.4375 5.75012C56.4372 4.8385 56.0749 3.96418 55.4302 3.31965C54.7855 2.67509 53.9112 2.31299 52.9995 2.31299H5.74963C5.74958 2.31299 5.74967 2.31299 5.74963 2.31299C4.83816 2.31325 3.96397 2.67545 3.31947 3.31996C2.67496 3.96446 2.31277 4.83852 2.3125 5.74999C2.3125 5.75003 2.3125 5.74995 2.3125 5.74999V34.625C2.3125 35.5367 2.6746 36.411 3.31916 37.0557C3.96369 37.7004 4.83788 38.0627 5.7495 38.063C5.74954 38.063 5.74946 38.063 5.7495 38.063H25.4375C25.7136 38.063 25.9375 38.2868 25.9375 38.563C25.9375 38.8391 25.7136 39.063 25.4375 39.063H5.7495C4.57266 39.0627 3.444 38.595 2.61196 37.7627C1.77992 36.9305 1.3125 35.8018 1.3125 34.625V5.74999C1.3128 4.57335 1.78035 3.44486 2.61236 2.61285C3.44437 1.78084 4.57286 1.31329 5.7495 1.31299Z" />
      <path fill-rule="evenodd" clip-rule="evenodd" d="M2.55881 2.67069C2.73132 2.45507 3.04597 2.42011 3.2616 2.59262L29.3752 23.4847L55.4889 2.59262C55.7045 2.42011 56.0191 2.45507 56.1917 2.67069C56.3642 2.88632 56.3292 3.20097 56.1136 3.37348L29.6876 24.5155C29.505 24.6616 29.2455 24.6616 29.0629 24.5155L2.63688 3.37348C2.42125 3.20097 2.3863 2.88632 2.55881 2.67069Z" />
    </svg>
  