
    <svg viewBox="0 0 64 64" xmlns="http://www.w3.org/2000/svg">
      <path fill-rule="evenodd" clip-rule="evenodd" d="M20.1875 2.31299C19.6239 2.31299 19.0834 2.53687 18.6849 2.93539C18.2864 3.3339 18.0625 3.8744 18.0625 4.43799V17.563C18.0625 17.8391 17.8386 18.063 17.5625 18.063C17.2864 18.063 17.0625 17.8391 17.0625 17.563V4.43799C17.0625 3.60919 17.3917 2.81433 17.9778 2.22828C18.5638 1.64223 19.3587 1.31299 20.1875 1.31299H46.4375C46.5701 1.31299 46.6973 1.36567 46.7911 1.45943L62.5411 17.2094C62.6348 17.3032 62.6875 17.4304 62.6875 17.563V59.563C62.6875 60.3918 62.3583 61.1866 61.7722 61.7727C61.1862 62.3587 60.3913 62.688 59.5625 62.688H41.1875C40.9114 62.688 40.6875 62.4641 40.6875 62.188C40.6875 61.9118 40.9114 61.688 41.1875 61.688H59.5625C60.1261 61.688 60.6666 61.4641 61.0651 61.0656C61.4636 60.6671 61.6875 60.1266 61.6875 59.563V17.7701L46.2304 2.31299H20.1875Z" />
      <path fill-rule="evenodd" clip-rule="evenodd" d="M46.4375 1.31299C46.7136 1.31299 46.9375 1.53685 46.9375 1.81299V14.938C46.9375 15.5016 47.1614 16.0421 47.5599 16.4406C47.9584 16.8391 48.4989 17.063 49.0625 17.063H62.1875C62.4636 17.063 62.6875 17.2868 62.6875 17.563C62.6875 17.8391 62.4636 18.063 62.1875 18.063H49.0625C48.2337 18.063 47.4388 17.7337 46.8528 17.1477C46.2667 16.5616 45.9375 15.7668 45.9375 14.938V1.81299C45.9375 1.53685 46.1614 1.31299 46.4375 1.31299Z" />
      <path fill-rule="evenodd" clip-rule="evenodd" d="M3.9375 54.313C3.9375 54.0368 4.16136 53.813 4.4375 53.813H35.9375C36.2136 53.813 36.4375 54.0368 36.4375 54.313V59.563C36.4375 60.3918 36.1083 61.1866 35.5222 61.7727C34.9362 62.3587 34.1413 62.688 33.3125 62.688H7.0625C6.2337 62.688 5.43884 62.3587 4.85279 61.7727C4.26674 61.1866 3.9375 60.3918 3.9375 59.563V54.313ZM4.9375 54.813V59.563C4.9375 60.1266 5.16138 60.6671 5.5599 61.0656C5.95841 61.4641 6.49892 61.688 7.0625 61.688H33.3125C33.8761 61.688 34.4166 61.4641 34.8151 61.0656C35.2136 60.6671 35.4375 60.1266 35.4375 59.563V54.813H4.9375Z" />
      <path fill-rule="evenodd" clip-rule="evenodd" d="M15.2906 23.8938C16.7165 22.8661 18.4297 22.313 20.1875 22.313C21.9453 22.313 23.6585 22.8661 25.0844 23.8938C26.5104 24.9216 27.5769 26.372 28.1327 28.0396C28.6886 29.7071 28.7057 31.5073 28.1816 33.1851C27.6574 34.863 26.6187 36.3333 25.2125 37.388C24.6039 37.844 24.1134 38.4396 23.7828 39.1245C23.4522 39.8093 23.2908 40.5635 23.3123 41.3237C23.3476 42.5598 23.8636 43.7334 24.7506 44.5951C25.6376 45.4567 26.8257 45.9385 28.0623 45.938H33.3125C34.8375 45.938 36.3 46.5438 37.3784 47.6221C38.4567 48.7005 39.0625 50.163 39.0625 51.688C39.0625 52.5168 38.7333 53.3116 38.1472 53.8977C37.5612 54.4837 36.7663 54.813 35.9375 54.813H4.4375C3.6087 54.813 2.81384 54.4837 2.22779 53.8977C1.64174 53.3116 1.3125 52.5168 1.3125 51.688C1.3125 50.163 1.9183 48.7005 2.99664 47.6221C4.07497 46.5438 5.53751 45.938 7.0625 45.938H12.3125C13.5496 45.9385 14.7382 45.4563 15.6253 44.5941C16.5121 43.7321 17.0278 42.5582 17.0627 41.3219C17.0815 40.5623 16.9189 39.8091 16.5883 39.1249C16.2578 38.4406 15.7688 37.8451 15.162 37.3876C13.7561 36.333 12.7175 34.8628 12.1934 33.1851C11.6693 31.5073 11.6864 29.7071 12.2423 28.0396C12.7981 26.372 13.8646 24.9216 15.2906 23.8938ZM20.1875 23.313C18.6396 23.313 17.131 23.8 15.8753 24.7051C14.6196 25.6101 13.6804 26.8874 13.191 28.3558C12.7015 29.8243 12.6864 31.4095 13.148 32.887C13.6095 34.3644 14.5242 35.6593 15.7625 36.588L15.7634 36.5887C16.4975 37.1419 17.0889 37.8622 17.4887 38.6899C17.8886 39.5175 18.0852 40.4286 18.0623 41.3474L18.0623 41.349C18.0204 42.8459 17.3961 44.2674 16.3223 45.3112C15.2485 46.3549 13.8099 46.9385 12.3125 46.938C12.3124 46.938 12.3126 46.938 12.3125 46.938H7.0625C5.80272 46.938 4.59454 47.4384 3.70374 48.3292C2.81295 49.22 2.3125 50.4282 2.3125 51.688C2.3125 52.2516 2.53638 52.7921 2.9349 53.1906C3.33341 53.5891 3.87391 53.813 4.4375 53.813H35.9375C36.5011 53.813 37.0416 53.5891 37.4401 53.1906C37.8386 52.7921 38.0625 52.2516 38.0625 51.688C38.0625 50.4282 37.5621 49.22 36.6713 48.3292C35.7805 47.4384 34.5723 46.938 33.3125 46.938H28.0627C28.0626 46.938 28.0628 46.938 28.0627 46.938C26.5658 46.9385 25.1275 46.3554 24.0538 45.3123C22.9801 44.2693 22.3555 42.8486 22.3127 41.3523C22.2867 40.432 22.482 39.5188 22.8822 38.6898C23.2825 37.8607 23.8759 37.1398 24.6127 36.5878C25.8509 35.6591 26.7655 34.3644 27.227 32.887C27.6886 31.4095 27.6735 29.8243 27.184 28.3558C26.6946 26.8874 25.7554 25.6101 24.4997 24.7051C23.244 23.8 21.7354 23.313 20.1875 23.313Z" />
      <path fill-rule="evenodd" clip-rule="evenodd" d="M34.125 28.0601C34.125 27.7839 34.3489 27.5601 34.625 27.5601H55.625C55.9011 27.5601 56.125 27.7839 56.125 28.0601C56.125 28.3362 55.9011 28.5601 55.625 28.5601H34.625C34.3489 28.5601 34.125 28.3362 34.125 28.0601Z" />
      <path fill-rule="evenodd" clip-rule="evenodd" d="M44.625 49.0601C44.625 48.7839 44.8489 48.5601 45.125 48.5601H55.625C55.9011 48.5601 56.125 48.7839 56.125 49.0601C56.125 49.3362 55.9011 49.5601 55.625 49.5601H45.125C44.8489 49.5601 44.625 49.3362 44.625 49.0601Z" />
      <path fill-rule="evenodd" clip-rule="evenodd" d="M38.0625 38.5601C38.0625 38.2839 38.2864 38.0601 38.5625 38.0601H55.6255C55.9016 38.0601 56.1255 38.2839 56.1255 38.5601C56.1255 38.8362 55.9016 39.0601 55.6255 39.0601H38.5625C38.2864 39.0601 38.0625 38.8362 38.0625 38.5601Z" />
    </svg>
  