
    <svg viewBox="0 0 64 64" xmlns="http://www.w3.org/2000/svg">
      <path fill-rule="evenodd" clip-rule="evenodd" d="M47.3483 37.0319C47.8914 36.8044 48.4742 36.6873 49.063 36.6873C49.6518 36.6873 50.2346 36.8044 50.7777 37.0319C51.3207 37.2593 51.8131 37.5926 52.226 38.0122C52.639 38.4318 52.9644 38.9294 53.1832 39.476C53.401 40.0202 53.5088 40.602 53.5006 41.188C53.5088 41.774 53.401 42.3559 53.1832 42.9C52.9644 43.4466 52.639 43.9442 52.226 44.3638C51.8131 44.7834 51.3207 45.1167 50.7777 45.3441C50.2346 45.5716 49.6518 45.6888 49.063 45.6888C48.4742 45.6888 47.8914 45.5716 47.3483 45.3441C46.8053 45.1167 46.3129 44.7834 45.9 44.3638C45.487 43.9442 45.1616 43.4466 44.9428 42.9C44.725 42.3559 44.6172 41.774 44.6254 41.188C44.6172 40.602 44.725 40.0202 44.9428 39.476C45.1616 38.9294 45.487 38.4318 45.9 38.0122C46.3129 37.5926 46.8053 37.2593 47.3483 37.0319ZM49.063 37.6873C48.6069 37.6873 48.1554 37.778 47.7347 37.9542C47.314 38.1304 46.9326 38.3886 46.6127 38.7137C46.2927 39.0387 46.0407 39.4242 45.8712 39.8476C45.7017 40.2711 45.6182 40.724 45.6254 41.18V41.196C45.6182 41.652 45.7017 42.1049 45.8712 42.5284C46.0407 42.9518 46.2927 43.3373 46.6127 43.6623C46.9326 43.9874 47.314 44.2456 47.7347 44.4218C48.1554 44.598 48.6069 44.6888 49.063 44.6888C49.5191 44.6888 49.9706 44.598 50.3913 44.4218C50.812 44.2456 51.1934 43.9874 51.5133 43.6623C51.8333 43.3373 52.0853 42.9518 52.2548 42.5284C52.4243 42.1049 52.5078 41.652 52.5006 41.196V41.18C52.5078 40.724 52.4243 40.2711 52.2548 39.8476C52.0853 39.4242 51.8333 39.0387 51.5133 38.7137C51.1934 38.3886 50.812 38.1304 50.3913 37.9542C49.9706 37.778 49.5191 37.6873 49.063 37.6873Z" />
      <path fill-rule="evenodd" clip-rule="evenodd" d="M49.0625 29.9836C46.0801 29.9836 43.2184 31.1613 41.0999 33.2604C38.9819 35.359 37.778 38.2088 37.75 41.1902C37.7506 43.0452 38.4501 45.1772 39.5428 47.3629C40.632 49.5414 42.0897 51.7298 43.556 53.6851C45.0211 55.6387 46.4875 57.3497 47.588 58.5727C48.1381 59.1839 48.5961 59.6725 48.9161 60.0078C48.9685 60.0627 49.0172 60.1134 49.062 60.16C49.1068 60.1134 49.1555 60.0626 49.2079 60.0077C49.528 59.6724 49.9861 59.1838 50.5361 58.5726C51.6368 57.3497 53.1032 55.6387 54.5685 53.6851C56.035 51.7298 57.4927 49.5413 58.582 47.3629C59.6749 45.1772 60.3744 43.0452 60.375 41.1903C60.347 38.2089 59.1431 35.359 57.0251 33.2604C54.9066 31.1613 52.0449 29.9836 49.0625 29.9836ZM49.062 60.876C48.7084 61.2295 48.7083 61.2294 48.7082 61.2292L48.7058 61.2269L48.6989 61.22L48.6727 61.1935C48.6497 61.1702 48.6158 61.1359 48.5719 61.091C48.4841 61.0012 48.3557 60.869 48.1928 60.6982C47.8668 60.3567 47.4021 59.8609 46.8447 59.2416C45.7305 58.0035 44.2439 56.269 42.756 54.2851C41.2693 52.3027 39.774 50.0614 38.6484 47.8101C37.5269 45.5669 36.75 43.27 36.75 41.188V41.1834C36.7799 37.9375 38.0902 34.8348 40.396 32.5501C42.7018 30.2654 45.8165 28.9836 49.0625 28.9836C52.3085 28.9836 55.4232 30.2654 57.729 32.5501C60.0348 34.8348 61.3451 37.9375 61.375 41.1834L61.375 41.188C61.375 43.27 60.598 45.5669 59.4764 47.8101C58.3508 50.0614 56.8553 52.3027 55.3685 54.2851C53.8805 56.2691 52.3937 58.0035 51.2794 59.2416C50.722 59.8609 50.2572 60.3567 49.9313 60.6982C49.7683 60.869 49.64 61.0012 49.5521 61.091C49.5081 61.1359 49.4743 61.1702 49.4513 61.1935L49.425 61.22L49.4182 61.2269L49.4163 61.2287C49.4162 61.2289 49.4156 61.2295 49.062 60.876ZM49.062 60.876L49.4156 61.2295C49.3218 61.3233 49.1946 61.376 49.062 61.376C48.9294 61.376 48.8019 61.323 48.7082 61.2292L49.062 60.876Z" />
      <path fill-rule="evenodd" clip-rule="evenodd" d="M5.75 23.313C5.18641 23.313 4.64591 23.5369 4.2474 23.9354C3.84888 24.3339 3.625 24.8744 3.625 25.438V61.688H21V25.438C21 24.8744 20.7761 24.3339 20.3776 23.9354C19.9791 23.5369 19.4386 23.313 18.875 23.313H5.75ZM3.54029 23.2283C4.12634 22.6422 4.9212 22.313 5.75 22.313H18.875C19.7038 22.313 20.4987 22.6422 21.0847 23.2283C21.6708 23.8143 22 24.6092 22 25.438V62.188C22 62.4641 21.7761 62.688 21.5 62.688H3.125C2.84886 62.688 2.625 62.4641 2.625 62.188V25.438C2.625 24.6092 2.95424 23.8143 3.54029 23.2283Z" />
      <path fill-rule="evenodd" clip-rule="evenodd" d="M40.8632 3.0887C40.8626 3.08894 40.8621 3.08917 40.8615 3.0894L19.8623 12.4241C19.7177 12.4873 19.5947 12.5912 19.5082 12.7231C19.4217 12.8549 19.3755 13.009 19.375 13.1666V22.8129C19.375 23.0891 19.1511 23.3129 18.875 23.3129C18.5989 23.3129 18.375 23.0891 18.375 22.8129V13.1659L18.375 13.1648C18.3758 12.8129 18.479 12.4689 18.672 12.1747C18.8646 11.8809 19.1385 11.6495 19.4602 11.5085C19.4607 11.5082 19.4612 11.508 19.4617 11.5078L40.4624 2.17248C40.7379 2.05258 41.0389 2.00303 41.3382 2.02825C41.6376 2.05348 41.926 2.1527 42.1775 2.317C42.429 2.4813 42.6358 2.70553 42.7792 2.96954C42.9226 3.23354 42.9981 3.52904 42.999 3.82946L42.999 3.83095L42.999 25.4379C42.999 25.7141 42.7751 25.9379 42.499 25.9379C42.2229 25.9379 41.999 25.7141 41.999 25.4379L41.999 3.83243C41.999 3.83224 41.999 3.83263 41.999 3.83243C41.9985 3.69791 41.9646 3.56504 41.9004 3.44682C41.8361 3.32844 41.7434 3.22789 41.6306 3.15421C41.5178 3.08053 41.3885 3.03603 41.2543 3.02472C41.1206 3.01346 40.9862 3.03545 40.8632 3.0887Z" />
      <path fill-rule="evenodd" clip-rule="evenodd" d="M8.40406 54.343C8.74407 54.003 9.20521 53.812 9.68605 53.812H14.936C15.4169 53.812 15.878 54.003 16.218 54.343C16.558 54.683 16.749 55.1442 16.749 55.625V62.188C16.749 62.4642 16.5252 62.688 16.249 62.688C15.9729 62.688 15.749 62.4642 15.749 62.188V55.625C15.749 55.4094 15.6634 55.2026 15.5109 55.0501C15.3585 54.8977 15.1517 54.812 14.936 54.812H9.68605C9.47042 54.812 9.26363 54.8977 9.11117 55.0501C8.9587 55.2026 8.87305 55.4094 8.87305 55.625V62.188C8.87305 62.4642 8.64919 62.688 8.37305 62.688C8.0969 62.688 7.87305 62.4642 7.87305 62.188V55.625C7.87305 55.1442 8.06406 54.683 8.40406 54.343Z" />
      <path fill-rule="evenodd" clip-rule="evenodd" d="M2.625 30.688C2.625 30.4118 2.84886 30.188 3.125 30.188H13.625C13.9011 30.188 14.125 30.4118 14.125 30.688C14.125 30.9641 13.9011 31.188 13.625 31.188H3.125C2.84886 31.188 2.625 30.9641 2.625 30.688Z" />
      <path fill-rule="evenodd" clip-rule="evenodd" d="M34.125 14.938C34.125 14.6618 34.3489 14.438 34.625 14.438H42.5C42.7761 14.438 43 14.6618 43 14.938C43 15.2141 42.7761 15.438 42.5 15.438H34.625C34.3489 15.438 34.125 15.2141 34.125 14.938Z" />
      <path fill-rule="evenodd" clip-rule="evenodd" d="M28.875 20.188C28.875 19.9118 29.0989 19.688 29.375 19.688H42.5C42.7761 19.688 43 19.9118 43 20.188C43 20.4641 42.7761 20.688 42.5 20.688H29.375C29.0989 20.688 28.875 20.4641 28.875 20.188Z" />
      <path fill-rule="evenodd" clip-rule="evenodd" d="M2.625 35.938C2.625 35.6618 2.84886 35.438 3.125 35.438H8.375C8.65114 35.438 8.875 35.6618 8.875 35.938C8.875 36.2141 8.65114 36.438 8.375 36.438H3.125C2.84886 36.438 2.625 36.2141 2.625 35.938Z" />
      <path fill-rule="evenodd" clip-rule="evenodd" d="M24.125 1.31299C24.4011 1.31299 24.625 1.53685 24.625 1.81299V9.97899C24.625 10.2551 24.4011 10.479 24.125 10.479C23.8489 10.479 23.625 10.2551 23.625 9.97899V1.81299C23.625 1.53685 23.8489 1.31299 24.125 1.31299Z" />
      <path fill-rule="evenodd" clip-rule="evenodd" d="M21 62.188C21 61.9118 21.2239 61.688 21.5 61.688H41.188C41.4641 61.688 41.688 61.9118 41.688 62.188C41.688 62.4641 41.4641 62.688 41.188 62.688H21.5C21.2239 62.688 21 62.4641 21 62.188Z" />
    </svg>
  