
    <svg xmlns="http://www.w3.org/2000/svg" viewBox="0 0 2500 2500">
      <path d="M 364 52.106 C 337.337 55.115, 311.621 67.650, 292.136 87.136 C 271.785 107.486, 260.037 132.508, 257.053 161.856 C 255.676 175.397, 255.633 822.406, 257.006 867 C 258.887 928.098, 262.889 982.443, 269.525 1037 C 306.751 1343.053, 418.419 1631.552, 597.370 1884 C 696.148 2023.347, 818.475 2152.185, 954.500 2260.140 C 1035.420 2324.361, 1124.282 2383.172, 1216 2433.207 C 1243.696 2448.316, 1243.846 2448.383, 1250 2448.420 C 1256.043 2448.457, 1261.381 2445.904, 1298.500 2425.225 C 1491.063 2317.948, 1666.012 2174.043, 1807.556 2006.500 C 2055.593 1712.903, 2205.461 1351.210, 2237.444 969 C 2243.857 892.370, 2244.162 869.294, 2243.762 491.500 C 2243.371 121.793, 2243.993 154.741, 2237.014 133.859 C 2224.019 94.974, 2191.108 64.835, 2150.500 54.629 C 2147.200 53.800, 2140.130 52.644, 2134.789 52.061 C 2122.886 50.760, 375.527 50.805, 364 52.106 M 370.395 91.055 C 360.614 92.008, 355.568 93.228, 347 96.713 C 324.536 105.848, 307.079 124.986, 298.850 149.500 L 296.500 156.500 296.186 506.500 C 295.967 750.320, 296.208 865.146, 296.980 885 C 304.753 1084.731, 344.795 1278.908, 416.791 1466 C 451.662 1556.617, 498.309 1652.385, 549.277 1738 C 661.142 1925.907, 803.675 2089.286, 975.379 2226.422 C 1055.983 2290.799, 1141.671 2347.716, 1234.250 2398.374 L 1250 2406.992 1265.750 2398.374 C 1533.694 2251.759, 1759.064 2040.937, 1922.522 1784 C 2081.860 1533.538, 2177.393 1245.969, 2199.420 950.500 C 2203.550 895.102, 2203.500 900.323, 2203.500 522 L 2203.500 157.500 2201.157 150 C 2192.116 121.059, 2170.163 100.336, 2140 92.270 C 2133.851 90.625, 2086.069 90.524, 1256 90.398 C 773.375 90.325, 374.853 90.621, 370.395 91.055 M 1805.241 719.822 C 1803.448 720.779, 1644.640 868.472, 1452.335 1048.030 C 1260.029 1227.589, 1099.997 1376.663, 1096.708 1379.306 C 1082.527 1390.703, 1066.244 1396.065, 1045.807 1396.068 C 1029.174 1396.071, 1015.213 1392.026, 1001.542 1383.242 C 993.556 1378.111, 991.357 1375.940, 880.001 1263.280 C 813.732 1196.233, 798.963 1181.769, 795.373 1180.398 C 786.274 1176.924, 775.798 1181.087, 771.177 1190.013 C 768.224 1195.719, 768.611 1204.173, 772.057 1209.207 C 774.185 1212.315, 792.094 1230.504, 915.507 1354.898 C 943.553 1383.167, 969.662 1408.647, 973.526 1411.522 C 987.858 1422.182, 1005.956 1430.159, 1023.725 1433.650 C 1036.293 1436.119, 1058.476 1435.941, 1071 1433.271 C 1088.820 1429.471, 1105.682 1421.825, 1120.060 1411.022 C 1128.054 1405.017, 1826.614 752.913, 1829.830 748.454 C 1836.652 738.997, 1833.353 725.281, 1822.982 719.991 C 1818.087 717.494, 1809.755 717.415, 1805.241 719.822" stroke="none" fill-rule="evenodd"></path>
    </svg>
  