
    <svg viewBox="0 0 64 64" xmlns="http://www.w3.org/2000/svg">
      <path fill-rule="evenodd" clip-rule="evenodd" d="M42.7747 4.22534C42.652 4.18102 42.5204 4.16689 42.3911 4.18414C42.2617 4.20139 42.1385 4.24951 42.0316 4.32445C41.9248 4.39938 41.8376 4.49892 41.7774 4.61467C41.7172 4.73036 41.6857 4.85885 41.6855 4.98928V43.8131C41.6855 43.9198 41.7066 44.0256 41.7474 44.1242C41.7883 44.2228 41.8482 44.3125 41.9237 44.388C41.9992 44.4634 42.0888 44.5233 42.1874 44.5642C42.2861 44.605 42.3918 44.6261 42.4985 44.6261H60.8735C60.9803 44.6261 61.086 44.605 61.1847 44.5642C61.2833 44.5233 61.3729 44.4634 61.4484 44.388C61.5239 44.3125 61.5838 44.2228 61.6247 44.1242C61.6655 44.0256 61.6865 43.9198 61.6865 43.8131L61.6855 10.6073C61.6855 10.6072 61.6855 10.6074 61.6855 10.6073C61.6854 10.4403 61.6339 10.2773 61.538 10.1406C61.4442 10.007 61.3124 9.90471 61.1598 9.84708L42.7984 4.23322C42.7904 4.23079 42.7825 4.22817 42.7747 4.22534ZM43.1017 3.28027C42.8317 3.18501 42.5428 3.15504 42.2589 3.19292C41.9705 3.23138 41.6955 3.3387 41.4573 3.50581C41.2191 3.67291 41.0247 3.89489 40.8903 4.153C40.756 4.4111 40.6858 4.69775 40.6855 4.98872L40.6855 43.8131C40.6855 44.0512 40.7324 44.2869 40.8236 44.5069C40.9147 44.7268 41.0482 44.9267 41.2166 45.0951C41.3849 45.2634 41.5848 45.397 41.8047 45.4881C42.0247 45.5792 42.2605 45.6261 42.4985 45.6261H60.8735C61.1116 45.6261 61.3474 45.5792 61.5674 45.4881C61.7873 45.397 61.9872 45.2634 62.1555 45.0951C62.3239 44.9267 62.4574 44.7268 62.5485 44.5069C62.6397 44.2869 62.6865 44.0512 62.6865 43.8131L62.6855 10.6071C62.6854 10.2346 62.5705 9.87104 62.3566 9.56618C62.1426 9.26131 61.84 9.02974 61.4898 8.90294C61.4818 8.90006 61.4738 8.89739 61.4657 8.89492L43.1017 3.28027Z" />
      <path fill-rule="evenodd" clip-rule="evenodd" d="M59.5625 1.31201C59.8386 1.31201 60.0625 1.53587 60.0625 1.81201V8.37501C60.0625 8.65115 59.8386 8.87501 59.5625 8.87501C59.2864 8.87501 59.0625 8.65115 59.0625 8.37501V1.81201C59.0625 1.53587 59.2864 1.31201 59.5625 1.31201Z" />
      <path fill-rule="evenodd" clip-rule="evenodd" d="M40.6875 14.938C40.6875 14.6618 40.9114 14.438 41.1875 14.438H49.0625C49.3386 14.438 49.5625 14.6618 49.5625 14.938C49.5625 15.2141 49.3386 15.438 49.0625 15.438H41.1875C40.9114 15.438 40.6875 15.2141 40.6875 14.938Z" />
      <path fill-rule="evenodd" clip-rule="evenodd" d="M22.3125 25.438C22.3125 25.1618 22.5364 24.938 22.8125 24.938H30.6875C30.9636 24.938 31.1875 25.1618 31.1875 25.438C31.1875 25.7141 30.9636 25.938 30.6875 25.938H22.8125C22.5364 25.938 22.3125 25.7141 22.3125 25.438Z" />
      <path fill-rule="evenodd" clip-rule="evenodd" d="M22.3125 33.313C22.3125 33.0368 22.5364 32.813 22.8125 32.813H33.3125C33.5886 32.813 33.8125 33.0368 33.8125 33.313C33.8125 33.5891 33.5886 33.813 33.3125 33.813H22.8125C22.5364 33.813 22.3125 33.5891 22.3125 33.313Z" />
      <path fill-rule="evenodd" clip-rule="evenodd" d="M40.6875 22.813C40.6875 22.5368 40.9114 22.313 41.1875 22.313H55.6255C55.9016 22.313 56.1255 22.5368 56.1255 22.813C56.1255 23.0891 55.9016 23.313 55.6255 23.313H41.1875C40.9114 23.313 40.6875 23.0891 40.6875 22.813Z" />
      <path fill-rule="evenodd" clip-rule="evenodd" d="M49.063 35.124C48.8474 35.124 48.6406 35.2097 48.4881 35.3621C48.3357 35.5146 48.25 35.7214 48.25 35.937V45.125C48.25 45.4012 48.0261 45.625 47.75 45.625C47.4739 45.625 47.25 45.4012 47.25 45.125V35.937C47.25 35.4562 47.441 34.995 47.781 34.655C48.121 34.315 48.5822 34.124 49.063 34.124H54.313C54.7938 34.124 55.255 34.315 55.595 34.655C55.935 34.995 56.126 35.4562 56.126 35.937V45.125C56.126 45.4012 55.9021 45.625 55.626 45.625C55.3499 45.625 55.126 45.4012 55.126 45.125V35.937C55.126 35.7214 55.0403 35.5146 54.8879 35.3621C54.7354 35.2097 54.5286 35.124 54.313 35.124H49.063Z" />
      <path fill-rule="evenodd" clip-rule="evenodd" d="M22.8416 17.594C23.1816 17.254 23.6427 17.063 24.1235 17.063H41.1865C41.4627 17.063 41.6865 17.2868 41.6865 17.563C41.6865 17.8391 41.4627 18.063 41.1865 18.063H24.1235C23.9079 18.063 23.7011 18.1486 23.5487 18.3011C23.3962 18.4536 23.3105 18.6604 23.3105 18.876V37.251C23.3105 37.5271 23.0867 37.751 22.8105 37.751C22.5344 37.751 22.3105 37.5271 22.3105 37.251V18.876C22.3105 18.3951 22.5016 17.934 22.8416 17.594Z" />
      <path fill-rule="evenodd" clip-rule="evenodd" d="M1.45859 37.4478C1.65365 37.2524 1.97023 37.252 2.16569 37.4471L15.0035 50.2589C15.1547 50.4113 15.3345 50.5323 15.5327 50.6149C15.7308 50.6974 15.9433 50.7399 16.158 50.7399C16.3727 50.7399 16.5852 50.6974 16.7833 50.6149C16.9815 50.5323 17.1613 50.4113 17.3125 50.2589L17.3139 50.2575L24.4019 43.1695L24.4037 43.1678C24.8954 42.6808 25.5595 42.4076 26.2515 42.4076C26.9435 42.4076 27.6076 42.6808 28.0993 43.1678L28.1008 43.1692L46.7908 61.8332C46.9862 62.0284 46.9864 62.3449 46.7913 62.5403C46.5962 62.7357 46.2796 62.736 46.0842 62.5408L27.3957 43.8783C27.3955 43.8781 27.3959 43.8785 27.3957 43.8783C27.0913 43.5772 26.6797 43.4076 26.2515 43.4076C25.8233 43.4076 25.4125 43.5765 25.1081 43.8776C25.1078 43.8778 25.1076 43.878 25.1073 43.8783L18.0225 50.9631C18.0222 50.9634 18.0219 50.9637 18.0217 50.964C17.7777 51.2097 17.4876 51.4048 17.1679 51.538C16.8479 51.6713 16.5047 51.7399 16.158 51.7399C15.8113 51.7399 15.4681 51.6713 15.1481 51.538C14.8285 51.4048 14.5384 51.2098 14.2945 50.9641C14.2941 50.9638 14.2938 50.9634 14.2935 50.9631L1.45931 38.1549C1.26385 37.9599 1.26352 37.6433 1.45859 37.4478Z" />
      <path fill-rule="evenodd" clip-rule="evenodd" d="M46.438 49.875C46.7141 49.875 46.938 50.0989 46.938 50.375V62.188C46.938 62.4641 46.7141 62.688 46.438 62.688H34.625C34.3489 62.688 34.125 62.4641 34.125 62.188C34.125 61.9119 34.3489 61.688 34.625 61.688H45.938V50.375C45.938 50.0989 46.1619 49.875 46.438 49.875Z" />
    </svg>
  